<?xml version="1.0" standalone="no"?>
<!DOCTYPE svg PUBLIC "-//W3C//DTD SVG 1.1//EN" "http://www.w3.org/Graphics/SVG/1.1/DTD/svg11.dtd" >
<!--
2013-9-30: Created.
-->
<svg>
<metadata>
Created by iconfont
</metadata>
<defs>

<font id="ipems-icon-font" horiz-adv-x="1024" >
  <font-face
    font-family="ipems-icon-font"
    font-weight="500"
    font-stretch="normal"
    units-per-em="1024"
    ascent="896"
    descent="-128"
  />
    <missing-glyph />
    
    <glyph glyph-name="x" unicode="x" horiz-adv-x="1001"
d="M281 543q-27 -1 -53 -1h-83q-18 0 -36.5 -6t-32.5 -18.5t-23 -32t-9 -45.5v-76h912v41q0 16 -0.5 30t-0.5 18q0 13 -5 29t-17 29.5t-31.5 22.5t-49.5 9h-133v-97h-438v97zM955 310v-52q0 -23 0.5 -52t0.5 -58t-10.5 -47.5t-26 -30t-33 -16t-31.5 -4.5q-14 -1 -29.5 -0.5
t-29.5 0.5h-32l-45 128h-439l-44 -128h-29h-34q-20 0 -45 1q-25 0 -41 9.5t-25.5 23t-13.5 29.5t-4 30v167h911zM163 247q-12 0 -21 -8.5t-9 -21.5t9 -21.5t21 -8.5q13 0 22 8.5t9 21.5t-9 21.5t-22 8.5zM316 123q-8 -26 -14 -48q-5 -19 -10.5 -37t-7.5 -25t-3 -15t1 -14.5
t9.5 -10.5t21.5 -4h37h67h81h80h64h36q23 0 34 12t2 38q-5 13 -9.5 30.5t-9.5 34.5q-5 19 -11 39h-368zM336 498v228q0 11 2.5 23t10 21.5t20.5 15.5t34 6h188q31 0 51.5 -14.5t20.5 -52.5v-227h-327z" />
    

    
    <glyph glyph-name="gauge" unicode="&#61497;" d="M418.4004 205.9004c-34.5-59.7998-11.2998-109 36.5498-136.5996s102.0996-23.2002 136.5996 36.5996c34.5 59.75 252.3496 593.2998 233.4004 604.25-18.9004 10.9502-372.0498-444.4502-406.5498-504.25zM512 585.9004c21.9004 0 43.25-1.9004 64.0498-5.4004 21.9004 27.4004 46.4502 57.5996 70.2998 86.3496-42.5996 12.3496-87.5498 19.0498-134.3496 19.0498-280.3496 0-500-236.4004-500-538.2002 0-18.5996 0.8496-37.1504 2.4502-55.25 2.4502-27.5 27-47.75 54.25-45.3496 27.5 2.5 47.7998 26.75 45.3496 54.25-1.3496 15.1504-2.0498 30.75-2.0498 46.3496 0 245.7002 175.75 438.2002 400 438.2002zM872.9502 523.4502c-13.9502-37.5-28.7002-75.7002-41.7002-108.75 50.8496-73.5 80.75-165.6504 80.75-267 0-15.8496-0.7002-31.7998-2.0996-47.25-2.5-27.5 17.75-51.7998 45.25-54.3496 1.5498-0.1504 3.0498-0.2002 4.5996-0.2002 25.5498 0 47.3496 19.5498 49.7002 45.4502 1.7002 18.5 2.5498 37.4502 2.5498 56.3496 0 147.5498-52.5996 279.4502-139.0498 375.75z"  horiz-adv-x="1024" />

    
    <glyph glyph-name="delete" unicode="&#61444;" d="M752.612 562.319l-20.7 0 0-519.829-68.305 0 0 519.829-113.845 0 0-519.829-68.305 0 0 519.829-113.836 0 0-519.829-68.305 0 0 519.829-43.466 0c-51.435 0-93.146 0.746-93.146 0l0-543.131c0-50.005 41.71-90.534 93.146-90.534l496.753 0c51.451 0 93.136 40.529 93.136 90.534l0 543.131c0.006 3.822-41.678 0-93.13 0zM890.49 725.518l-204.115 0 0 55.552c0 32.195-57.539 58.286-91.078 58.286l-182.141 0c-33.522 0-91.071-26.091-91.071-58.286l0-55.552-204.077 0c-25.61 0-46.364-20.389-46.364-45.539 0-25.142 20.747-45.532 46.364-45.532l772.483 0c25.585 0 46.332 20.389 46.332 45.532-0.006 25.151-20.754 45.539-46.332 45.539zM595.303 725.518l-182.141 0 0 22.766 182.141 0 0-22.766z"  horiz-adv-x="1024" />

    
    <glyph glyph-name="exit" unicode="&#61478;" d="M662.012 329.077l0 0 0-146.23c0-12.442-10.057-22.498-22.506-22.498l-202.48 0c0 0 0 464.774 0 474.035 0 14.195-7.358 35.805-31.548 47.976-13.49 6.81-193.47 96.752-193.47 96.752l427.5 0c12.451 0 22.507-10.088 22.507-22.5l0-202.518 56.282 0 0 247.518c-0.004 18.639-15.145 33.724-33.785 33.724l-551.262 0c-18.638 0-33.75-15.083-33.75-33.724l0-663.77c0-13.058 7.449-24.34 18.273-29.981 0.091-0.058 0.149-0.123 0.246-0.123 14.774-7.907 218.579-119.496 293.47-158.982 15.91-8.339 25.539 0.92 25.539 9.932 0 9.016 0 145.373 0 145.373l247.486 0c18.641 0 33.784 15.147 33.784 33.784l0 191.234-56.286 0zM943.249 441.583l-168.73 168.764 0-112.508-281.243 0 0-112.506 281.243 0 0-112.478z"  horiz-adv-x="1024" />

    
    <glyph glyph-name="column" unicode="&#61490;" d="M728.268 803.776l246.196 0 0-837.968-246.196 0 0 837.968zM390.617 384.799l246.202 0 0-418.991-246.202 0 0 418.991zM52.529 557.572l246.196 0 0-591.765-246.196 0 0 591.765z"  horiz-adv-x="1031" />

    
    <glyph glyph-name="error" unicode="&#61446;" d="M512 834c-248.528 0-450-201.472-450-450s201.472-450 450-450c248.527 0 450 201.472 450 450 0 248.528-201.472 450-450 450zM718.332 257.216c6.862-6.862 6.861-17.993 0.002-24.859l-54.693-54.689c-6.862-6.862-17.992-6.868-24.861-0.002l-126.78 126.784-126.782-126.782c-6.864-6.866-17.994-6.862-24.859 0l-54.691 54.689c-6.864 6.862-6.866 17.993 0 24.859l126.784 126.784-126.782 126.782c-6.864 6.862-6.864 17.994 0 24.859l54.691 54.689c6.864 6.866 17.994 6.864 24.859 0l126.78-126.781 126.784 126.782c6.861 6.866 17.992 6.864 24.857 0l54.691-54.689c6.861-6.866 6.862-17.994 0-24.859l-126.782-126.784 126.782-126.784z"  horiz-adv-x="1024" />

    
    <glyph glyph-name="rss" unicode="&#61505;" d="M840.102 831.935c16.547 0 31.98-3.184 46.299-9.546 14.32-6.362 26.891-14.958 37.709-25.777 10.819-10.818 19.409-23.385 25.772-37.705 6.367-14.319 9.546-29.751 9.546-46.299l0-656.77c0-16.547-3.178-31.98-9.546-46.299-6.363-14.319-14.953-26.891-25.772-37.709-10.818-10.819-23.389-19.409-37.709-25.772-14.319-6.367-29.753-9.546-46.299-9.546l-656.771 0c-16.548 0-31.981 3.178-46.299 9.546-14.32 6.363-26.886 14.953-37.705 25.772-10.82 10.818-19.415 23.39-25.777 37.709s-9.546 29.751-9.546 46.299l0 656.769c0 16.547 3.184 31.981 9.546 46.299 6.362 14.32 14.958 26.886 25.777 37.705 10.818 10.819 23.385 19.414 37.705 25.777 14.319 6.362 29.753 9.546 46.299 9.546l656.771 0.001zM239.652 30.063c12.091 0 23.55 2.228 34.367 6.684 10.818 4.452 20.208 10.66 28.164 18.612 7.952 7.958 14.155 17.345 18.611 28.163 4.457 10.819 6.684 22.271 6.684 34.367 0 12.091-2.227 23.545-6.684 34.362-4.457 10.819-10.659 20.207-18.611 28.163-7.956 7.958-17.347 14.161-28.164 18.617-10.818 4.451-22.276 6.679-34.367 6.679-12.725 0-24.342-2.228-34.843-6.679-10.501-4.457-19.889-10.66-28.164-18.617-8.273-7.956-14.635-17.345-19.092-28.163-4.45-10.818-6.679-22.271-6.679-34.362 0-12.097 2.228-23.548 6.679-34.367 4.457-10.818 10.82-20.206 19.092-28.163 8.275-7.952 17.663-14.16 28.164-18.612 10.501-4.455 22.117-6.684 34.843-6.684l0 0zM480.215 54.883l34.367 0c9.546 0 18.929-0.159 28.158-0.48 9.229-0.317 18.934-0.476 29.119-0.476 10.18 0 21.637 0.317 34.362 0.956 0 57.91-11.135 112.484-33.411 163.715-22.272 51.231-52.505 95.937-90.69 134.121-38.185 38.183-82.889 68.26-134.121 90.212-51.232 21.953-105.804 32.937-163.714 32.937-0.638-15.275-0.955-27.69-0.955-37.236l0-26.726c0-8.909 0.159-17.977 0.474-27.209 0.323-9.227 0.481-20.839 0.481-34.841 40.731 0 79.071-7.635 115.029-22.91 35.957-15.274 67.303-36.278 94.03-63.004 26.726-26.729 47.889-58.074 63.481-94.03 15.591-35.958 23.388-74.3 23.388-115.03l0 0zM723.641 56.79c22.91 0 38.185-0.158 45.819-0.475 7.639-0.317 13.364-0.797 17.186-1.431 3.818-0.639 8.749-0.956 14.795-0.956 6.045 0 18.934 0.639 38.66 1.911 0 90.367-17.181 175.169-51.548 254.403-34.367 79.23-81.142 148.438-140.325 207.627-59.187 59.183-128.555 105.965-208.11 140.325-79.546 34.367-164.511 51.554-254.876 51.554-0.641-15.914-0.956-27.366-0.956-34.369l0-15.275c0-2.546 0.16-4.299 0.474-5.248 0.318-0.956 0.482-3.184 0.482-6.685 0-3.502 0.156-9.228 0.474-17.18 0.318-7.956 0.474-20.53 0.474-37.71 74.463 0 144.307-14.001 209.54-42.002 65.234-28.004 122.189-66.348 170.875-115.034 48.687-48.681 87.03-105.641 115.034-170.873 27.999-65.228 42.001-134.759 42.001-208.583l0 0zM723.641 56.79z"  horiz-adv-x="1024" />

    
    <glyph glyph-name="cog" unicode="&#61448;" d="M915.056 480l-78.768 0c-7.424 16-17.952 49.28-31.424 72.992l55.632 54.064c17.568 17.568 17.584 45.2 0.032 62.736l-63.504 63.12c-17.536 17.536-45.968 17.344-63.536-0.208l-52.528-55.712C657.28 690.448 624 700.896 608 708.32L608 787.072C608 811.904 581.696 832 556.912 832l-89.808 0C442.304 832 416 811.904 416 787.072l0-78.768c-16-7.424-49.264-17.952-72.976-31.408l-54.08 55.632c-17.568 17.568-45.216 17.568-62.736 0.032l-63.12-63.52c-17.52-17.52-17.36-45.952 0.208-63.536l55.728-52.528C205.552 529.264 195.12 496 187.696 480L108.944 480C84.096 480 64 453.696 64 428.912l0-89.808C64 314.32 84.096 288 108.944 288l78.768 0c7.424-16 17.968-49.264 31.408-72.976l-55.632-54.096c-17.568-17.568-17.568-45.184-0.032-62.72l63.504-63.136c17.52-17.52 45.968-17.344 63.536 0.224l52.528 55.728C366.736 77.568 400 67.12 416 59.696l0-78.768C416-43.904 442.304-64 467.088-64l89.808 0C581.68-64 608-43.904 608-19.056l0 78.768c16 7.424 49.264 17.968 72.992 31.424l54.08-55.632c17.568-17.568 45.184-17.568 62.72-0.032l63.136 63.504c17.52 17.536 17.344 45.968-0.224 63.536l-55.728 52.528C818.432 238.752 828.88 272 836.304 288l78.768 0C939.904 288 960 314.304 960 339.088l0 89.808C960 453.696 939.904 480 915.056 480zM512 181.968c-111.6 0-202.064 90.464-202.064 202.048 0 111.6 90.464 202.064 202.064 202.064 111.616 0 202.064-90.464 202.064-202.064C714.064 272.432 623.616 181.968 512 181.968z"  horiz-adv-x="1024" />

    
    <glyph glyph-name="down" unicode="&#61529;" d="M746.771 500.034c-29.962 110.432-125.56 220.121-251.251 220.121-146.024 0-250.924-101.875-260.969-264.132-91.44 0-170.777-65.874-170.777-167.728 0-101.876 81.963-240.453 168.085-240.453h560.283c106.432 2.014 168.085 152.321 168.085 268.247 0 117.239-57.341 222.463-213.455 183.944v0zM678.596 317.885l-159.046-154.904c-1.97-1.903-4.64-3.086-7.551-3.086-2.889 0-5.58 1.182-7.55 3.086l-159.047 154.904c-1.051 1.028-1.489 2.735-0.941 4.267 0.613 1.488 1.97 2.452 3.436 2.452h102.865l-0.196 159.806c0 2.977 1.072 5.953 3.217 8.229 2.189 2.276 5.034 3.414 7.879 3.414h100.741c2.779 0 5.624-1.138 7.813-3.414s3.239-5.253 3.239-8.229l-0.219-159.806h102.865c1.467 0 2.823-0.963 3.436-2.452 0.546-1.533 0.108-3.24-0.941-4.267v0zM678.596 317.885z"  horiz-adv-x="1024" />

    
    <glyph glyph-name="pie" unicode="&#61488;" d="M469.978 804.194l0-443.109c0-1.291 0.482-2.604 1.489-3.609 1.007-0.985 2.276-1.489 3.589-1.489l457.157 0c0-237.433-199.426-420.195-437.459-420.195s-430.98 186.046-430.98 423.478c0 237.454 172.462 444.925 406.205 444.925zM526.006 832.207c237.99 0 434.22-182.764 434.22-420.195l-429.142 0c-1.313 0-2.582 0.505-3.59 1.488-1.006 1.007-1.488 2.32-1.488 3.611l0 415.095z"  horiz-adv-x="1024" />

    
    <glyph glyph-name="detail" unicode="&#61462;" d="M495.569966 656.052555C175.917267 656.052555 48.056392 336.398833 48.056392 336.398833s127.860875-319.653722 447.513574-319.653722c319.653722 0 447.51562 319.653722 447.51562 319.653722S815.223688 656.052555 495.569966 656.052555zM495.569966 144.608032c-105.88426 0-191.790801 85.842094-191.790801 191.790801s85.906541 191.791824 191.790801 191.791824c105.886306 0 191.792847-85.843117 191.792847-191.791824S601.456272 144.608032 495.569966 144.608032zM591.466901 336.398833c0-52.943153-42.953782-95.894889-95.896935-95.894889-52.941107 0-95.894889 42.951736-95.894889 95.894889 0 52.94213 42.953782 95.895912 95.894889 95.895912C548.513119 432.295768 591.466901 389.341986 591.466901 336.398833z"  horiz-adv-x="1024" />

    
    <glyph glyph-name="station" unicode="&#61464;" d="M784.527328-7.432017 784.527328 787.337161c0 26.104541 38.135068 47.254234 11.99671 47.254234L243.402329 834.591395c-26.073887 0 11.995687-21.149693 11.995687-47.254234l0-794.769178-66.732531 0 0-59.216683 646.499156 0 0 59.216683L784.527328-7.432017zM645.505485 713.188394l66.794956 0 0-71.65497-66.794956 0L645.505485 713.188394zM645.505485 518.867664l66.794956 0 0-71.65497-66.794956 0L645.505485 518.867664zM645.505485 324.516234l66.794956 0 0-71.592548-66.794956 0L645.505485 324.516234zM516.206472 713.188394l66.795979 0 0-71.65497-66.795979 0L516.206472 713.188394zM516.206472 518.867664l66.795979 0 0-71.65497-66.795979 0L516.206472 518.867664zM516.206472 324.516234l66.795979 0 0-71.592548-66.795979 0L516.206472 324.516234zM328.31771 772.4368l123.744279 0 0-130.903376L328.31771 641.533424 328.31771 772.4368zM328.31771 578.117093l123.744279 0 0-130.904399L328.31771 447.212694 328.31771 578.117093zM328.31771 383.796362l123.744279 0 0-125.505435L328.31771 258.290927 328.31771 383.796362zM328.31771 194.842873l123.744279 0 0-130.871653L328.31771 63.97122 328.31771 194.842873z"  horiz-adv-x="1024" />

    
    <glyph glyph-name="department" unicode="&#61472;" d="M375.069-64.038c0 13.88-0.141 27.201 0.018 40.52 0.787 65.948-0.238 131.986 3.006 197.814 3.349 67.958 47.151 78.431 103.716 74.414 5.354-0.38 11.345-10.434 14.706-17.163 38.15-76.421 75.822-153.076 113.695-229.641 3.242-6.548 7.018-12.825 13.902-17.948-15.117 75.288-29.664 150.697-45.826 225.761-3.182 14.776-0.064 23.826 10.518 33.221 17.279 15.33 33.65 31.687 54.998 51.981-58.395 6.738-100.053 29.553-122.648 78.832-13.237 28.88-15.306 59.171-7.32 90.067 15.439 59.772 72.158 99.304 137.594 95.81 60.346-3.221 111.857-52.305 120.068-114.417 9.711-73.46-28.799-119.61-134.08-153.624 20.051-17.618 36.955-33.067 54.531-47.712 11.625-9.686 14.262-19.829 10.979-35.211-15.91-74.484-30.234-149.307-41.012-225.598 4.018 7.723 8.176 15.374 12.025 23.18 37.088 75.271 74.49 150.402 110.848 226.029 6.482 13.487 14.037 18.075 28.902 17.803 64.02-1.18 89.027-23.641 90.223-87.916 1.389-74.804 0.326-149.652 0.326-226.203C727.904-64.038 552.951-64.038 375.069-64.038zM904.992 329.862c-17.518 7.624-32.725 12.388-45.611 20.729-5.482 3.545-8.545 14.574-8.576 22.22-0.514 123.014-0.355 246.032-0.367 369.048-0.006 35.354-0.031 35.41-34.719 35.412-202.529 0.02-405.058 0.02-607.582-0.002-33.412-0.002-33.909-0.527-33.909-34.084-0.018-240.782-0.018-481.565 0-722.344 0.004-31.82 0.668-32.428 33.192-32.453 35.061-0.027 70.121-0.009 106.565-0.009 0-18.53 0-34.644 0-52.224-48.382 0-96.192-2.307-143.634 0.914-26.274 1.78-46.721 29.976-49.709 56.987-0.738 6.69-0.932 13.472-0.932 20.209-0.043 246.036 0.018 492.069-0.123 738.101-0.009 23.316 3.929 44.721 21.972 61.44 18.648 17.284 41.811 18.684 65.272 18.699 132.77 0.085 265.538 0.052 398.307 0.052 71.254 0.002 142.516 0.249 213.775-0.096 61.906-0.301 86-24.525 86.049-85.899 0.096-130.519 0.029-261.035 0.029-391.551C904.992 347.718 904.992 340.426 904.992 329.862zM756.533 683.859c0-16.137 0-30.792 0-46.802-163.859 0-326.243 0-490.183 0 0 15.52 0 30.204 0 46.802C428.813 683.859 591.785 683.859 756.533 683.859zM452.398 407.652c0-16.96 0-31.663 0-47.634-62.02 0-122.95 0-185.748 0 0 15.323 0 30.54 0 47.634C327.87 407.652 389.39 407.652 452.398 407.652zM432.013 498.902c-55.898 0-110.239 0-165.895 0 0 17.149 0 33.271 0 51.445 54.921 0 109.686 0 165.895 0C432.013 532.976 432.013 516.167 432.013 498.902z"  horiz-adv-x="1024" />

    
    <glyph glyph-name="save" unicode="&#61449;" d="M783.462 809.392l-40.928 0 0-361.295-425.713 0 0 361.295-230.322 0 0-851.391 851.426 0 0 681.652-154.463 169.739zM839.682 22.401l-622.196 0 0 361.295 622.196 0 0-361.295zM835.759 10.966zM262.241 340.035l526.138 0 0-67.675-526.138 0 0 67.675zM262.241 231.974l526.138 0 0-68.766-526.138 0 0 68.766zM262.241 126.096l526.138 0 0-67.675-526.138 0 0 67.675zM576.613 808.301l98.241 0 0-289.254-98.241 0 0 289.254z"  horiz-adv-x="1024" />

    
    <glyph glyph-name="category" unicode="&#61507;" d="M72.103 823.779h387.726v-387.71h-387.726v387.71zM576.263 823.779h374.918v-387.71h-374.918v387.71zM72.103 318.476h387.726v-374.903h-387.726v374.903zM576.263 318.476h374.918v-374.903h-374.918v374.903z"  horiz-adv-x="1024" />

    
    <glyph glyph-name="employee" unicode="&#61460;" d="M512.577-65.132c-116.153 9.771-223.182 18.562-330.151 28.04-12.707 1.125-25.593 4.67-37.518 9.34-20.6 8.073-30.225 23.396-25.487 46.23 11.275 54.427 21.138 109.182 33.98 163.236 9.695 40.824 36.07 68.476 77.241 79.817 49.052 13.515 98.398 25.958 147.497 39.308 35.766 9.721 51.892 65.215 25.282 91.758-38.646 38.557-65.033 82.748-73.178 137.159-0.543 3.621-0.93 7.772-2.925 10.588-52.049 73.435-22.025 147.196 3.93 217.967 8.205 22.361 36.538 44.965 60.341 52.324 44.29 13.702 92.397 23.779 138.215 21.458 48.271-2.447 88.784-38.334 136.778-51.28 25.785-6.957 34.141-39.786 35.431-67.771 1.458-31.465 2.113-63.036 1.295-94.512-0.48-18.601 2.968-39.29-20.14-50.834-5.215-2.608-5.79-16.692-6.557-25.658-4.2-49.188-18.872-93.098-52.159-131.669-29.094-33.714-8.17-95.127 33.195-109.574 55.902-19.526 111.308-40.508 167.201-60.072 33.373-11.686 50.972-34.728 55.728-69.211 6.84-49.562 15.051-98.938 21.311-148.563 4.773-37.827-2.833-50.425-40.873-54.529C742.337-44.383 623.384-54.645 512.577-65.132zM571.905 247.938c-9.644-20.601-26.392-39.601-25.185-57.393 2.219-32.929 14.938-65.153 23.51-98.56 3.9 2.487 6.255 3.115 6.787 4.462 9.099 23.07 18.11 46.182 26.87 69.389C622.606 215.41 622.538 215.436 571.905 247.938zM466.634 92.965c2.364 0.549 4.724 1.094 7.09 1.644 4.663 20.741 6.805 42.482 14.549 61.999 14.436 36.398 2.599 64.012-27.397 93.175-12.357-14.616-37.185-31.865-34.744-43.29C434.456 167.546 452.375 130.648 466.634 92.965z"  horiz-adv-x="1024" />

    
    <glyph glyph-name="parameter" unicode="&#61508;" d="M521.9 588.78v92.22h290.1v-92.22h-290.1zM521.9 448.14v92.22h290.1v-92.22h-290.1zM521.9 227.7v92.16h290.1v-92.16h-290.1zM521.9 87.060v92.16h290.1v-92.16h-290.1zM443.36 447.36h-231.36v231.36h231.36v-231.36zM443.36 87.72h-231.36v231.36h231.36v-231.36zM889.040 78.48c0-39.48-32.040-71.52-71.52-71.52h-610.92c-39.48 0-71.58 32.040-71.58 71.52v293.4h-73.020v-293.4c0-79.62 64.86-144.48 144.6-144.48h610.92c79.62 0 144.48 64.86 144.48 144.48v293.4h-72.96v-293.4zM817.52 834h-610.92c-79.74 0-144.6-64.86-144.6-144.6v-293.28h72.96v293.28c0 39.48 32.16 71.64 71.58 71.64h610.92c39.48 0 71.52-32.16 71.52-71.64v-293.28h73.020v293.28c0 79.74-64.86 144.6-144.48 144.6z"  horiz-adv-x="1024" />

    
    <glyph glyph-name="lock" unicode="&#61459;" d="M806.359 461.803l-58.64 0 0 167.067c0 103.28-84.025 187.305-187.305 187.305l-114.624 0c-103.28 0-187.305-84.025-187.305-187.305l0-167.067-59.344 0c-40.741 0-73.887-33.146-73.887-73.887l0-385.153c0-40.741 33.146-73.887 73.887-73.887l607.218 0c40.741 0 73.887 33.146 73.887 73.887l0 385.153c0 40.741-33.145 73.887-73.887 73.887zM343.907 628.869c0 56.178 45.706 101.883 101.883 101.883l114.625 0c56.178 0 101.883-45.705 101.883-101.883l0-167.067-318.391 0 0 167.067z"  horiz-adv-x="1024" />

    
    <glyph glyph-name="user" unicode="&#61458;" d="M746.601644 577.332217c0-140.601248-105.731066-254.571976-236.137115-254.571976-130.406049 0-236.138138 113.970728-236.138138 254.571976 0 140.557246 105.73209 254.549463 236.138138 254.549463C640.869554 831.88168 746.601644 717.889463 746.601644 577.332217zM20.54543-61.968098c0 0 56.673767 221.033116 309.662689 338.207815l367.502002-2.663666c0 0 237.011019-95.870488 302.712393-335.544149L20.54543-61.968098z"  horiz-adv-x="1024" />

    
    <glyph glyph-name="safe001" unicode="&#61539;" d="M922.998784 756.117504l0-456.649728c0-27.385856-6.852608-54.626304-20.534272-81.72032-13.693952-27.118592-31.619072-53.384192-53.798912-78.843904-22.166528-25.459712-47.505408-49.555456-75.976704-72.283136-28.473344-22.729728-57.347072-42.994688-86.646784-60.773376-29.30176-17.80224-57.761792-32.606208-85.41696-44.360704-27.655168-11.778048-51.883008-19.85024-72.685568-24.240128l-9.851904-1.634304-9.034752 1.634304c-21.363712 4.389888-46.140416 12.46208-74.33216 24.240128-28.204032 11.754496-57.503744 26.559488-87.877632 44.360704-30.399488 17.777664-60.2368 38.042624-89.526272 60.773376-29.313024 22.72768-55.443456 46.823424-78.441472 72.283136s-41.616384 51.725312-55.846912 78.843904c-14.241792 27.094016-21.374976 54.334464-21.374976 81.72032L101.653504 756.117504l33.678336 4.948992 377.817088 70.626304 385.206272-70.626304L922.998784 756.117504zM513.245184 765.579264l-4.523008 0.903168-324.2752-55.113728 0-288.135168 328.798208 0L513.245184 765.579264zM840.216576 423.232512L513.245184 423.232512l0-410.093568c21.057536 4.829184 43.945984 12.218368 68.649984 22.144 24.680448 9.925632 49.067008 21.681152 73.150464 35.21536 24.082432 13.558784 47.27296 28.606464 69.551104 45.164544 22.290432 16.559104 42.005504 34.336768 59.175936 53.311488 17.168384 18.948096 30.862336 38.677504 41.104384 59.138048 10.218496 20.48512 15.33952 41.26208 15.33952 62.332928L840.216576 423.232512z"  horiz-adv-x="1024" />

    
    <glyph glyph-name="add" unicode="&#61441;" d="M512.171915 834.309986c-246.254543 0-445.883163-199.62862-445.883163-445.883163s199.62862-445.883163 445.883163-445.883163 445.883163 199.62862 445.883163 445.883163S758.426459 834.309986 512.171915 834.309986zM567.510268 112.281505l-102.33062-0.310062-0.681522 225.127364-225.127364-0.681522-0.310062 102.329597 225.127364 0.681522-0.681522 225.127364 102.33062 0.310062 0.681522-225.127364 225.128387 0.681522 0.310062-102.33062-225.127364-0.681522L567.510268 112.281505z"  horiz-adv-x="1024" />

    
    <glyph glyph-name="print" unicode="&#61456;" d="M301.76 537.281q-25.92-0.96-50.88-0.96l-79.68 0q-17.28 0-35.04-5.76t-31.2-17.76-22.08-30.72-8.64-43.68l0-72.96 875.52 0 0 39.36q0 15.36-0.48 28.8t-0.48 17.28q0 12.48-4.8 27.84t-16.32 28.32-30.24 21.6-47.52 8.64l-127.68 0 0-93.12-420.48 0 0 93.12zM948.8 313.601l0-49.92q0-22.08 0.48-49.92t0.48-55.68-10.08-45.6-24.96-28.8-31.68-15.36-30.24-4.32q-13.44-0.96-28.32-0.48t-28.32 0.48l-30.72 0-43.2 122.88-421.44 0-42.24-122.88-60.48 0q-19.2 0-43.2 0.96-24 0-39.36 9.12t-24.48 22.08-12.96 28.32-3.84 28.8l0 160.32 874.56 0zM188.48 253.121q-11.52 0-20.16-8.16t-8.64-20.64 8.64-20.64 20.16-8.16q12.48 0 21.12 8.16t8.64 20.64-8.64 20.64-21.12 8.16zM335.36 134.081q-7.68-24.96-13.44-46.08-4.8-18.24-10.08-35.52t-7.2-24-2.88-14.4 0.96-13.92 9.12-10.08 20.64-3.84l350.4 0q22.08 0 32.64 11.52t1.92 36.48q-4.8 12.48-9.12 29.28t-9.12 33.12q-4.8 18.24-10.56 37.44l-353.28 0zM354.56 494.081l0 218.88q0 10.56 2.4 22.08t9.6 20.64 19.68 14.88 32.64 5.76l180.48 0q29.76 0 49.44-13.92t19.68-50.4l0-217.92-313.92 0z"  horiz-adv-x="1024" />

    
    <glyph glyph-name="leaf" unicode="&#61461;" d="M862 594q7-7 14-18l-236 0 0 236q11-7 18-14zm-238-82l272 0 0-528q0-20-14-34t-34-14l-672 0q-20 0-34 14t-14 34l0 800q0 20 14 34t34 14l400 0 0-272q0-20 14-34t34-14zm80-368l0 32q0 7-4.5 11.5t-11.5 4.5l-352 0q-7 0-11.5-4.5t-4.5-11.5l0-32q0-7 4.5-11.5t11.5-4.5l352 0q7 0 11.5 4.5t4.5 11.5zm0 128l0 32q0 7-4.5 11.5t-11.5 4.5l-352 0q-7 0-11.5-4.5t-4.5-11.5l0-32q0-7 4.5-11.5t11.5-4.5l352 0q7 0 11.5 4.5t4.5 11.5zm0 128l0 32q0 7-4.5 11.5t-11.5 4.5l-352 0q-7 0-11.5-4.5t-4.5-11.5l0-32q0-7 4.5-11.5t11.5-4.5l352 0q7 0 11.5 4.5t4.5 11.5z"  horiz-adv-x="1024" />

    
    <glyph glyph-name="voice" unicode="&#61512;" d="M786.368 80c-14.4 0-28.48 6.4-38.016 18.496-16.256 20.992-12.48 51.136 8.512 67.392 3.456 2.816 91.136 74.688 91.136 218.112 0 143.36-87.744 215.36-91.456 218.368-20.544 16.512-24.128 46.592-7.808 67.264 16.384 20.736 46.272 24.512 67.008 8.256 5.248-4.096 128.256-102.016 128.256-293.888 0-192-123.008-289.792-128.256-293.888-8.768-6.848-19.136-10.112-29.376-10.112zM640 165.248c-15.488 0-30.656 7.488-39.936 21.376-14.656 22.080-8.768 51.904 13.312 66.624 1.664 1.152 51.776 36.992 51.776 106.24 0 69.376-50.048 105.28-52.16 106.688-21.568 15.040-27.2 44.8-12.288 66.56 14.72 21.76 44.224 27.648 65.984 12.992 3.904-2.56 94.528-64.384 94.528-186.24 0-121.728-90.624-183.552-94.528-186.112-8.256-5.504-17.472-8.128-26.688-8.128zM256 192l256-256v896l-256-256h-192v-384z"  horiz-adv-x="1024" />

    
    <glyph glyph-name="dingwei" unicode="&#61465;" d="M512.741-96.719c0 0-334.521 426.837-334.521 609.809 0 182.94 149.785 331.251 334.521 331.251 184.719 0 334.495-148.293 334.495-331.251-0.002-182.978-334.495-609.809-334.495-609.809v0zM509.27 654.055c-78.625 0-142.39-63.13-142.39-141.037 0-77.863 63.755-140.995 142.39-140.995 78.668 0 142.405 63.13 142.405 140.995 0 77.885-63.732 141.037-142.405 141.037v0z"  horiz-adv-x="1024" />

    
    <glyph glyph-name="remove" unicode="&#61443;" d="M512 834c-247.5 0-450-202.5-450-450s202.5-450 450-450c247.5 0 450 202.5 450 450 0 247.5-202.5 450-450 450l0 0zM737 339l-450 0 0 90 450 0 0-90z"  horiz-adv-x="1024" />

    
    <glyph glyph-name="ok" unicode="&#61445;" d="M946.512 586.875l-523.15-526.704c-13.101-13.195-34.404-13.195-47.512 0l-10.589 10.628-0.039-0.047-11.411 11.59-49.336 49.641c-0.305 0.345-0.391 0.782-0.697 1.127l-226.252 229.461c-13.148 13.234-13.148 34.677 0 47.864l71.334 71.812c13.109 13.234 34.411 13.234 47.512 0l203.51-206.327 427.727 430.677c13.148 13.195 34.411 13.195 47.567 0l71.334-71.812c13.101-13.241 13.101-34.677 0-47.911z"  horiz-adv-x="1024" />

    
    <glyph glyph-name="role" unicode="&#61491;" d="M960.192 374.208l0-224.064-51.136 0c-7.808 20.864-16.832 38.272-27.584 52.224-39.232 51.648-107.072 65.472-166.656 78.016-23.808 4.864-46.4 9.6-64.256 16.128-7.68 2.752-13.056 5.504-16.768 7.488 18.816 20.608 35.008 45.824 46.848 74.304 14.848 34.88 22.592 72.832 22.592 109.824 0 56.512-3.584 121.216-29.44 173.12-11.456 22.656-29.632 48-58.496 66.24 13.76 49.664 45.248 82.688 112.064 82.688 105.024 0 121.152-84.992 121.152-187.456 0-53.696-23.936-108.736-59.328-140.032-3.52-3.2-5.504-7.744-5.504-12.352-0.128-12.736 0.256-29.44 5.12-35.712C818.496 395.008 899.2 393.792 960.192 374.208M140.352 200.768C178.56 255.232 248.384 269.12 309.888 281.6c24.128 4.736 46.72 9.472 64.704 15.744 7.424 2.624 12.672 4.992 16.32 7.104C372.096 325.056 356.48 350.016 344.384 377.984c-14.656 34.688-22.656 71.936-23.168 108.16C320.64 534.08 323.648 570.56 329.856 601.536c9.088 44.544 25.728 78.464 51.008 104C389.248 714.24 398.656 721.536 408.64 727.808c-14.08 49.92-44.928 82.944-110.4 82.944-108.224 0-123.456-85.952-122.432-189.184C176.384 568.96 200.256 514.176 235.264 483.008 238.848 479.872 240.832 475.264 240.832 470.4c0-12.736-0.832-29.312-5.312-35.2C206.528 395.648 125.184 394.752 63.808 375.808l0-225.408 51.264 0C122.24 170.368 130.752 186.88 140.352 200.768M882.624-22.72c0.512-10.88-8.192-19.968-18.944-19.968L161.088-42.688c-10.88 0-19.456 9.152-18.88 19.968 2.496 43.008 11.584 143.744 44.032 190.144 49.28 70.144 211.968 46.016 257.536 108.736 5.184 6.848 6.016 25.344 6.016 39.616 0 5.376-2.24 10.496-6.208 14.208C404.48 364.928 378.112 426.112 377.536 485.312c-1.152 115.84 15.744 212.032 135.808 212.032 116.416 0 134.144-95.168 134.144-210.368 0-60.288-26.496-121.856-65.6-156.992C578.112 326.528 575.68 321.216 575.616 316.224 575.296 302.016 576.192 283.136 581.12 276.096c46.144-62.72 203.968-40.256 256.256-108.736C871.488 121.984 880.32 20.352 882.624-22.72"  horiz-adv-x="1024" />

    
    <glyph glyph-name="tips" unicode="&#61506;" d="M509.278517 833.245747c-176.100764 0-330.876849-154.313551-330.876849-330.876849 0-108.015086 60.008722-225.722928 141.804656-283.607266l378.145409 0c81.795934 57.884338 141.803633 175.593204 141.803633 283.607266C840.155367 678.931173 685.379281 833.245747 509.278517 833.245747zM698.950368 560.715771 498.384399 359.041562c-1.523703-1.523703-1.799996-1.062192-1.431605 0.599657-10.06217-7.616468-22.201651-8.769734-28.801976-2.170432L336.362282 489.489566c-7.52437 7.570419-5.031597 22.433942 5.631254 33.189913l12.786211 13.016455c10.662851 10.754948 25.38925 13.340843 32.912597 5.770424l94.767364-94.906533c0.414439 0.554632 0.738827 1.200338 1.245364 1.707898l163.916257 164.376745c7.569396 7.570419 22.295795 4.985548 32.912597-5.770424l12.83226-12.971429C703.981964 583.148689 706.474738 568.285167 698.950368 560.715771zM698.35071 171.492048 320.206324 171.492048l0-47.267537 378.145409 0L698.351734 171.492048zM402.371672-65.817776l207.305463 0c35.220153 30.05041 88.673575 92.459808 88.673575 142.773727L320.206324 76.955952C320.206324 26.641009 367.151519-35.767366 402.371672-65.817776zM698.35071 76.955952C698.85827 71.739137 698.35071 82.310913 698.35071 76.955952L698.35071 76.955952zM320.206324 76.955952C320.206324 82.310913 319.697741 71.739137 320.206324 76.955952L320.206324 76.955952z"  horiz-adv-x="1024" />

    
    <glyph glyph-name="line" unicode="&#61496;" d="M854.243 820.907l-684.487 0c-50.973 0-94.663-43.691-94.663-94.663l0-677.205c0-58.254 43.691-101.945 94.663-101.945l677.205 0c50.973 0 94.663 43.691 94.663 94.663l0 684.487c7.282 50.973-36.409 94.663-87.381 94.663zM854.243 471.381l-291.271-327.68-196.608 189.326-196.608-196.608 0 145.635 196.608 196.608 196.608-196.608 291.271 327.68 0-138.354z"  horiz-adv-x="1024" />

    
    <glyph glyph-name="internet" unicode="&#61511;" d="M384.481 301.256v-1.8c0-29.559 6.75-57.938 20.391-84.994 16.003-28.35 37.941-50.794 65.7-67.416 27.759-16.594 58.612-24.919 92.531-24.919s64.828 8.325 92.587 24.919c27.731 16.65 49.641 39.094 65.672 67.416h220.303c-28.434-80.072-77.766-145.659-148.078-196.706-70.369-51.103-149.372-76.669-236.953-76.669-65.391 0-127.097 14.147-185.091 42.497-129.572-62.831-222.75-65.897-279.506-9.253-19.772 18.45-29.616 49.247-29.616 92.363 0 43.087 8.325 91.125 25.003 144.084 16.65 52.931 44.409 111.15 83.306 174.572 38.841 63.422 84.825 120.994 137.869 172.716 30.853 32.034 50.597 51.75 59.203 59.119-76.528-36.9-145.631-94.219-207.281-171.759 22.191 89.887 70.031 163.772 143.438 221.681 73.406 57.881 157.641 86.822 252.675 86.822 9.872 0 19.716-0.619 29.588-1.828 69.131 30.797 132.047 48.009 188.831 51.722 56.756 3.712 96.834-5.541 120.291-27.703 46.884-48.038 51.216-123.159 12.966-225.366 35.775-62.916 53.691-130.669 53.691-203.316 0-17.241-0.619-32.625-1.828-46.209h-575.691zM345.641-1.706c-82.659 50.484-140.709 121.275-174.037 212.456-55.519-108.394-62.916-182.897-22.219-223.538 35.803-35.719 101.194-32.006 196.256 11.081zM726.931 408.384c-2.475 44.353-20.362 82.209-53.662 113.625-33.328 31.387-72.506 47.109-117.534 47.109-45.084 0-84.234-15.722-117.534-47.109-33.356-31.416-51.244-69.272-53.719-113.625h342.45zM706.569 724.284c78.947-32.006 141.891-83.728 188.775-155.166 28.406 76.359 27.141 129.909-3.684 160.734-33.328 34.453-95.034 32.597-185.091-5.569z"  horiz-adv-x="1024" />

    
    <glyph glyph-name="jiagou" unicode="&#61526;" d="M190.432 402.634h302.651v-182.289c0-10.442 8.469-18.911 18.917-18.911v0c10.447 0 18.917 8.469 18.917 18.911v182.289h302.651v-201.195c0-10.447 8.466-18.915 18.911-18.915v0c10.447 0 18.917 8.469 18.917 18.915v207.893c0 17.196-13.941 31.136-31.136 31.136h-309.343v82.599c0 10.448-8.469 18.915-18.917 18.915v0c-10.447 0-18.917-8.469-18.917-18.915v-82.599h-309.349c-17.194 0-31.131-13.941-31.131-31.136v-207.892c0-10.447 8.469-18.915 18.911-18.915v0c10.447 0 18.917 8.469 18.917 18.915v201.195zM266.096 152.044h-189.152c-10.459 0-18.917-8.473-18.917-18.917v-183.394c0-10.438 8.458-18.917 18.917-18.917h189.154c10.438 0 18.917 8.479 18.917 18.917v183.394c-0.002 10.444-8.481 18.917-18.919 18.917v0 0zM606.577 152.044h-189.154c-10.453 0-18.922-8.473-18.922-18.917v-183.394c0-10.438 8.469-18.917 18.922-18.917h189.154c10.436 0 18.921 8.479 18.921 18.917v183.394c0.002 10.444-8.483 18.917-18.921 18.917v0 0zM947.064 152.044h-189.159c-10.457 0-18.917-8.473-18.917-18.917v-183.394c0-10.438 8.464-18.917 18.917-18.917h189.159c10.433 0 18.911 8.479 18.911 18.917v183.394c-0.002 10.444-8.481 18.917-18.911 18.917v0 0zM360.674 572.873h302.651c10.438 0 18.917 8.469 18.917 18.915v226.47c0 10.457-8.479 18.926-18.917 18.926h-302.651c-10.453 0-18.917-8.469-18.917-18.926v-226.468c0-10.448 8.464-18.917 18.917-18.917v0 0zM360.674 572.873z"  horiz-adv-x="1024" />

    
    <glyph glyph-name="clear" unicode="&#61475;" d="M204.21559 321.261097l27.238364 0 4.136204 0 594.510202 0 11.30344 0 11.79872 0c21.462824 0 31.564903 15.896038 22.414499 35.320437l-76.54842 162.779364c-9.149381 19.423375-34.195823 35.320437-55.658647 35.320437L609.165482 554.681334 609.165482 676.061822 609.165482 793.17103c0 21.482267-17.574261 39.037085-39.036062 39.037085l-78.073146 0c-21.462824 0-39.037085-17.554818-39.037085-39.037085l0-117.110231 0-121.380488L314.007135 554.680311c-21.481244 0-46.508243-15.897062-55.639205-35.320437L181.781648 356.581534C172.65171 337.158159 182.734346 321.261097 204.21559 321.261097zM834.942645 263.468856 236.848824 263.468856c3.25923-60.175521 1.849114-132.6256-48.090275-175.608553-69.934792-60.175521-46.356794-126.030391 3.25923-152.067394l101.537558 0c9.987468 13.628392 65.036225 91.625814 81.237209 170.443927 2.51631 16.353456 4.060479 27.181059 4.060479 27.181059-0.705058-8.996908-2.211365-18.088984-4.060479-27.181059-7.757684-50.130747-25.007557-153.440671-37.606503-170.443927l73.479525 0c9.988492 13.628392 65.036225 91.625814 81.238232 170.443927 2.515287 16.353456 4.059456 27.181059 4.059456 27.181059-0.705058-8.996908-2.211365-18.088984-4.059456-27.181059-7.758708-50.130747-25.007557-153.440671-37.607526-170.443927l92.597955 0c9.968026 13.628392 65.036225 91.625814 81.217766 170.443927 2.535753 16.353456 4.078899 27.181059 4.078899 27.181059-0.685615-8.996908-2.210341-18.088984-4.078899-27.181059-7.739265-50.130747-24.968671-153.440671-37.58706-170.443927l92.998067 0c9.969049 13.628392 65.036225 91.625814 81.21879 170.443927 2.535753 16.353456 4.078899 27.181059 4.078899 27.181059-0.686638-8.996908-2.211365-18.088984-4.078899-27.181059-7.739265-50.130747-24.989137-153.440671-37.607526-170.443927l93.53121 0c0 0 61.701271 22.13002 52.055586 93.513814C858.958618 131.089873 853.469604 187.663356 834.942645 263.468856z"  horiz-adv-x="1024" />

    
    <glyph glyph-name="home" unicode="&#61447;" d="M962 293.733l-450 349.313-450-349.313 0 142.425 450 349.313 450-349.313zM849.5 306.417l0-337.5-225 0 0 225-225 0 0-225-225 0 0 337.5 337.5 253.125z"  horiz-adv-x="1024" />

    
    <glyph glyph-name="device" unicode="&#61495;" d="M78.086 287.232l866.467 0 0-320.191-866.467 0 0 320.191zM78.086 778.699l0-179.524 866.467 0 0 179.524-866.467 0zM234.431 638.911c-27.732 0-50.23 22.396-50.23 50.026s22.498 50.026 50.23 50.026c27.731 0 50.23-22.396 50.23-50.026 0-27.63-22.499-50.026-50.23-50.026zM78.086 534.235l0-179.524 866.467 0 0 179.524-866.467 0zM234.431 391.038c-27.732 0-50.23 22.396-50.23 50.026s22.498 50.026 50.23 50.026c27.731 0 50.23-22.396 50.23-50.026s-22.499-50.026-50.23-50.026z"  horiz-adv-x="1024" />

    
    <glyph glyph-name="detail1" unicode="&#61481;" d="M766.866 224.711l-364.096 0c-20.109 0-36.405-16.301-36.405-36.409 0-20.112 16.299-36.409 36.405-36.409l364.096 0c20.109 0 36.405 16.301 36.405 36.409 0 20.112-16.299 36.409-36.405 36.409zM220.729 188.302c0-20.108 16.301-36.409 36.409-36.409s36.409 16.301 36.409 36.409c0 20.108-16.301 36.409-36.409 36.409-20.108 0-36.409-16.301-36.409-36.409zM221.867 552.391c0-20.108 16.301-36.409 36.409-36.409s36.409 16.301 36.409 36.409c0 20.108-16.301 36.409-36.409 36.409-20.108 0-36.409-16.301-36.409-36.409zM220.729 370.347c0-20.108 16.301-36.409 36.409-36.409s36.409 16.301 36.409 36.409c0 20.108-16.301 36.409-36.409 36.409-20.108 0-36.409-16.301-36.409-36.409zM768.003 588.8l-364.096 0c-20.109 0-36.405-16.301-36.405-36.409 0-20.112 16.299-36.409 36.405-36.409l364.096 0c20.109 0 36.405 16.301 36.405 36.409 0 20.112-16.299 36.409-36.405 36.409zM877.233 807.253l-728.191 0c-40.217 0-72.811-32.598-72.811-72.811l0-728.191c0-40.217 32.598-72.811 72.811-72.811l728.191 0c40.217 0 72.811 32.598 72.811 72.811l0 728.191c0 40.217-32.598 72.811-72.811 72.811zM877.227 42.665c0-20.107-16.294-36.406-36.406-36.406l-655.364 0c-20.107 0-36.406 16.294-36.406 36.406l0 655.364c0 20.107 16.295 36.406 36.406 36.406l655.364 0c20.107 0 36.406-16.295 36.406-36.406l0-655.364zM766.866 406.755l-364.096 0c-20.109 0-36.405-16.301-36.405-36.409 0-20.112 16.299-36.409 36.405-36.409l364.096 0c20.109 0 36.405 16.301 36.405 36.409 0 20.112-16.299 36.409-36.405 36.409z"  horiz-adv-x="1024" />

    
    <glyph glyph-name="jifang" unicode="&#61463;" d="M773.658 827.048l-523.315 0c-17.863 0-32.395-14.532-32.395-32.394l0-821.304c0-17.863 14.533-32.395 32.395-32.395l523.315 0c17.861 0 32.393 14.533 32.393 32.395l0 821.303c0 17.864-14.533 32.395-32.393 32.395zM741.261 573.434l0-567.691-458.523 0 0 567.691 458.523 0zM741.261 762.257l0-124.886-458.523 0 0 124.886 458.523 0zM512 348.381c28.91 0 52.429 23.519 52.429 52.428 0 28.91-23.52 52.428-52.429 52.428-28.909 0-52.428-23.519-52.428-52.428 0-28.909 23.519-52.428 52.428-52.428zM512 145.065c28.91 0 52.429 23.52 52.429 52.428 0 28.91-23.52 52.429-52.429 52.429-28.909 0-52.428-23.52-52.428-52.429 0-28.909 23.519-52.428 52.428-52.428z"  horiz-adv-x="1024" />

    
    <glyph glyph-name="juheng" unicode="&#61480;" d="M96.702 647.468l527.544 0 0 75.364-527.544 0c-20.819 0-37.681-16.863-37.681-37.681 0-20.82 16.863-37.682 37.681-37.682zM96.702 346.013l94.205 0 0 75.364-94.205 0c-20.819 0-37.681-16.863-37.681-37.681 0-20.82 16.863-37.682 37.681-37.682zM59.02 82.242c0-20.819 16.863-37.681 37.681-37.681l527.544 0 0 75.364-527.544 0c-20.819-0.001-37.681-16.864-37.681-37.682zM925.699 421.377l-527.544 0 0-75.364 527.544 0c20.819 0 37.681 16.863 37.681 37.681 0 20.82-16.863 37.682-37.681 37.682zM925.699 119.924l-94.205 0 0-75.364 94.205 0c20.819 0 37.681 16.863 37.681 37.681 0 20.82-16.863 37.682-37.681 37.682zM963.381 685.149c0 20.819-16.863 37.681-37.681 37.681l-94.205 0 0-75.364 94.205 0c20.819 0.001 37.681 16.864 37.681 37.682zM727.87 553.264c26.019 0 47.102 21.082 47.102 47.102l0 169.567c0 26.019-21.083 47.102-47.102 47.102s-47.102-21.082-47.102-47.102l0-169.567c0-26.018 21.083-47.101 47.102-47.101zM247.429 468.479l0-169.567c0-26.019 21.083-47.102 47.102-47.102s47.102 21.082 47.102 47.102l0 169.568c0 26.019-21.082 47.102-47.102 47.102s-47.102-21.082-47.102-47.102zM727.87 214.128c-26.019 0-47.102-21.083-47.102-47.102l0-169.568c0-26.019 21.083-47.102 47.102-47.102s47.102 21.083 47.102 47.102l0 169.568c0 26.019-21.083 47.102-47.102 47.102z"  horiz-adv-x="1024" />

    
    <glyph glyph-name="signal" unicode="&#61513;" d="M511.079 844.116c253.209 0 458.471-205.264 458.471-458.47s-205.265-458.471-458.471-458.471-458.471 205.265-458.471 458.471 205.265 458.471 458.471 458.471zM898.572 219.931v57.561h-115.257l0.070 273.863h-239.956l-0.070-273.863h-59.14v273.502h-241.719v-273.502h-118.911v-57.561h176.471v273.502h126.598v-273.502h174.247l0.070 273.863h124.836l-0.070-273.863h172.833z"  horiz-adv-x="1024" />

    
    <glyph glyph-name="diqiu" unicode="&#61473;" d="M503.087 460.434c0.05 0.075 0.119 0.146 0.165 0.219-0.186 0.886-0.335 1.665-0.404 2.215 0.084-0.805 0.168-1.619 0.239-2.437l0 0zM675.917 271.719c0.007 0 0.007 0.009 0.007 0.016-0.022 0.009-0.1 0.009-0.114 0.032 0.022-0.022 0.082-0.022 0.108-0.048l0 0zM680.346 271.166c-1.072 0.173-3.478-0.14-4.429 0.554-0.583-2.025 0.297-2.785 4.429-0.554l0 0zM511.999 834c-248.532 0-449.993-201.463-449.993-449.988 0-248.527 201.462-449.993 449.993-449.993 248.52 0 449.986 201.466 449.986 449.993 0.001 248.524-201.466 449.988-449.986 449.988l0 0zM799.423 658.215c-15.502-0.467-26.297-0.499-38.755-9.095-5.015-3.467-8.423-8.064-14.793-9.849-5.714-1.608-11.877-0.199-17.544-2.122-20.442-6.938-17.205-50.73-44.144-44.113-12.654 3.101-21.575 18.057-27.942 27.82-5.613 8.592-15.828 15.701-8.924 26.451-3.148-0.807-6.504 0.115-9.605-0.473 4.313 9.475 18.79 8.647 21.196 13.49 5.995 12.141-16.514 13.406-22.884 15.087 7.682 8.191 11.572-2.752 19.153-0.895 7.288 1.792-3.847 11.392-8.213 12.468-1.569 0.388-27.233-7.088-12.381 6.202-18.334 11.686-36.663 23.372-54.998 35.068-3.089-13.006 24.403-20.393 33.379-24.977-1.394-5.37-9.743-13.191-16.139-10.899-6.028 2.162-3.581 12.139-12.678 11.137-6.49-15.098 13.733-10.685 15.612-19.939 2.136-10.54-7.648-6.072-11.407-5.893-0.896 0.05-7.907 7.306-8.286 1.81-0.457-6.526 11.18-3.981 12.002-10.57-13.555-0.548-20.472 4.344-31.507 11.678-12.881 8.548-19.487 7.776-35.268 7.776 4.718 1.939 11.219 3.379 15.252 6.496 2.207 1.709 10.855 10.112 11.428 11.988 2.44 8.1-0.135 7.483-7.881 12.793-6.891 4.713-15.243 13.17-23.588 14.833-30.242 6.038-9.325-27.297-32.279-31.895 0.394-0.021 0.816-0.041 1.156-0.041l-1.314 0c0.059 0.005 0.105 0.031 0.159 0.041-5.31 0.188-15.263 1.483-18.684-1.324-2.417-1.974-2.617-9.895-5.32-12.758-4.802-5.127-11.964-6.148-17.698-9.844-5.594-3.607-17.932-12.863-21.22-19.145-12.114-23.142 27.292-30.326 42.233-37.089 6.749-3.059 26.473-7.241 30.151-12.348 4.925-6.86-4.25-13.292 6.04-18.111 3.284-1.537 10.062-1.85 12.89 1.332 4.6 5.182-1.866 6.351-2.967 12.339-2.139 11.527 1.38 6.949 7.177 11.228 11.817 8.722 9.151 9.255 4.903 23.157-1.973 6.465-9.42 24.527-2.869 29.304 8.538 6.226 26.753-3.377 33.305-4.184 7.622-0.932 11.945-11.489 16.1-15.811 2.759-2.868 7.69-8.952 12.512-8.293 7.651 1.044 4.448 7.734 8.887 10.819 11.901 8.254 15.038-2.959 19.779-14.176 4.463-10.531 8.683-14.442 16.628-21.2 3.692-3.143 19.855-14.37 18.332-21.291-1.037-4.661-19.502-11.731-24.443-13.295-18.05-5.718-51.91 9.359-55.547-19.267 7.003 2.611 26.923 18.883 32.896 11.167 2.725-3.496-2.156-8.592-1.011-12.068 3.41-10.422 11.448-6.791 19.876-5.106-0.577-0.359-1.165-0.673-1.789-0.952 11.516 5.916 10.316 4.687 15.603 14.281 1.722 3.139 4.293 10.725 6.72 12.971 8.372 7.696 9.657 2.396 14.843-3.543 1.358-1.564 14.178-20.024 9.612-19.102-14.909 2.99-29.224 2.59-41.593-5.563-7.123-4.708-13.863-11.053-22.372-14.182-2.044-0.742-17.145-2.177-15.357 0.399 2.606 3.755 11.576 6.241 15.112 10.295-9.807 4.04-17.993-4.881-25.699-10.096-8.18-3.871-10.082-11.083-17.046-17.403-3.044-2.754-8.794-3.229-11.775-6.856-2.893-3.522-3.259-9.055-6.004-12.397-1.921-2.342-6.858-0.926-8.866-4.452-2.62-4.608 2.396-8.887 1.296-12.204-2.012-6.034-13.485-11.153-17.897-15.492 0.592 0.565 1.176 1.147 1.753 1.741-4.423-4.638-10.02-8.051-13.47-13.421 1.584-7.576 6.58-25.654 5.191-29.812-4.599-13.677-13.536 7.442-17.155 12.9-12.444 18.752-37.321 6.202-54.317 4.649-21.728-1.99-43.019-30.198-29.613-53.093 6.435-10.977 17.259-15.227 29.679-12.686 11.054 2.259 14.371 17.722 24.776 18.007 19.122 0.508 0.424-18.745-1.235-25.807-1.53-6.543 2.385-7.15 9.12-8.773 4.975-1.188 12.019 2.131 16.334-0.71 2.712-1.792 2.584-11.614 6.321-8.518-7.358-6.097-5.639-20.551 1.902-25.776 8.362-5.798 18.208-0.428 26.964-2.653 16.528-4.223 8.637 1.258 23.153 10.02 9.793 5.901 11.402-1.116 18.097-1.142 4.561-0.021 7.451 6.549 15.068 4.638 6.209-1.561 8.662-6.354 16.078-7.461 3.038-0.45 6.179 1.146 9.078 0.825 13.718-1.523 24.215-10.286 35.022-18.211 8.906-6.522 14.803-5.2 25.21-8.174 7.597-2.169 21.624-13.168 20.907-22.821-0.131-1.727-6.775-10.411-7.911-14.324 1.948-1.347 15.472 1.676 19.431 1.962-1.303-1.514-10.516-7.988-10.516-4.556 0-1.756 6.521-5.373 8.105-6.5 4.807 15.601 12.697 5.562 22.198 1.697 8.076-3.287 18.01-3.468 26.623-5.518 7.314-1.742 23.433-6.676 28.852-12.65 6.52-7.194 2.014-18.875-2.814-26.032-6.31-9.377-15.829-12.986-19.764-24.019-3.114-8.745-0.78-17.579-2.557-27.278-2.402-13.121-4.328-8.524-12.783-16.529-7.107-6.745-0.119-5.574-9.797-9.871-9.729-4.325-18.292-3.033-25.026-13.707 0.27 0.668 0.488 1.344 0.679 2.045-2.845-3.972-4.264-12.115-5.61-14.787-3.397-6.819-8.08-11.12-13.447-16.798-2.059-2.172-20.973-28.02-22.069-25.943-1.405 2.7-16.321-2.707-17.032 1.141 0.594-3.237-0.14-2.152 3.561-4.014-3.426-21.241-12.412-24.408-33.269-24.623 1.793-10.209-7.559-8.176-11.903-13.664-2.543-3.202-3.753-12.213-5.517-16.362-1.101-2.609-9.24-13.058-9.24-15.125-0.009-1.909 2.736-4.702 5.312-7.378-14.705-2.907-29.698-4.936-44.925-6.174 2.853 3.592 3.537 6.749-5.544 7.181 2.432 6.601 8.14 10.364 10.554 16.763 1.147 3.017 0.201 4.21 1.168 7.194 3.322 10.324 1.882 6.426 0.009 14.448-4.387 18.787 1.56 23.926 6.682 41.124 5.257 17.675 4.77 40.594 8.137 59.632 1.598 9.111 4.213 28.072 1.051 36.689-3.566 9.695-19.249 17.333-26.431 23.86-10.172 9.263-15.575 19.276-23.127 30.728-3.836 5.821-8.204 11.524-11.195 17.848-6.396 13.525 0.006 5.474 1.083 13.453 1.03 7.711-0.923 14.606 2.14 22.702 3.387 8.948 11.843 14.528 14.621 23.547 2.498 8.036 0.597 18.134-7.657 20.811-4.598 1.502-9.676-1.959-14.293-1.199-6.444 1.044-13.738 5.853-18.794 9.696-7.059 5.382-9.704 14.119-17.219 19.22-6.293 4.25-10.769 1.701-17.499 3.696-7.024 2.067-11.357 10.728-17.021 13.437-8.497 4.066-13.284-1.774-22.256-0.592-7.632 0.999-19.269 9.453-26.396 12.651-14.496 6.486-23.322 13.649-29.116 28.358-4.966 12.619-12.203 18.5-20.723 29.005-8.632 10.651-11.337 19.722-24.648 22.557-1.556 0.343 3.259-11.173 3.757-12.1 4.752-8.803 11.895-16.846 17.639-25.046 8.454-12.075 4.851-14.342-3.747-2.665-9.834 13.36-21.24 26.645-29.768 40.791-3.223 5.346-2.602 8.803-7.921 13.878-5.135 4.908-11.86 7.298-17.036 11.96-18.611 16.742-21.998 39.09-19.877 62.948 0.694 7.781 3.503 14.003 2.262 21.479-1.021 6.207-4.688 11.342-9.265 15.917-1.474 2.349-5.182 8.137-5.395 8.508-4.224 7.018-7.511 13.924-14.226 19.681-3.85 3.318-13.818 11.068-23.198 17.564 42.153 52.577 97.313 94.246 160.596 120.113 0.504-3.178 1.869-6.356 3.916-9.395 5.205-7.715 10.161-7.108 20.317-9.239-1.089-11.79-14.869-11.882-24.192-10.607-11.133 1.531-22.844 5.226-32.488-4.526 5.325-3.204 19.945-15.676 18.002-2.646 10.664 0.532 20.972 0.851 31.408-0.424 4.178-0.513 18.187-5.215 21.982-3.068 1.594 0.902 3.292 8.755 4.977 11.178-2.974-0.021-6.161 1.484-9.128 1.2 6.909 8.846 13.794 1.902 22.585-2.162-9.679-5.884-3.935-19.98 5.528-8.529 7.772 9.42-1.903 16.25-11.774 21.739 9.953 12.448 16.094 13.577 25.46-0.477 1.544 8.667 8.538 5.195 15.846 4.557l0 2.168c-3.218-0.079-6.651 1.774-9.838 1.438 7.447 11.882 2.693 14.596 13.34 18.476 8.477 3.084 32.667 0.208 35.645 8.179-16.927-3.287-37.374-4.075-52.646-11.772-6.586-3.317-14.434-13.797-21.008-6.989-6.741 6.989 4.822 18.222 10.735 21.645l-1.414 0c26.782 5.698 54.518 8.752 82.977 8.752 18.389 0 36.457-1.361 54.194-3.781-6.138-3.221-1.597-5.399-6.066-8.698-8.538-6.277-23.697-11.518-33.859-15.487 12.918 0.035 44.183-12.11 50.196 6.007-4.168 0.638-8.328 1.28-12.491 1.922 7.781 5.16 16.462 9.334 25.576 12.399 82.248-16.295 155.402-58.014 211.058-116.547-0.396 0.012-0.79 0.022-1.177 0.012l0 0zM872.253 500.224c0.743 1.585 2.471 2.103 3.186 3.407 1.503 2.747 1.168 4.61 3.017 6.959 1.981 2.544 4.658 3.17 6.869 5.154 0.892 0.803 1.389 1.545 1.797 2.302 6.637-18.525 11.926-37.68 15.776-57.345-0.119-0.14-0.187-0.353-0.331-0.468-0.964-0.768-7.273-1.704-8.566-1.749-4.567-0.175-7.959 2.856-11.237 5.708-3.34 2.893-7.263 6.775-9.635 10.525-2.535 4.006-0.97 8.123-0.785 12.702 0.148 3.847-1.724 9.338-0.091 12.803l0 0zM877.405 293.906c-7.731 6.713-16.852 15.715-22.344 24.412-5.87 9.275-2.254 18.819-1.824 29.44 0.358 8.932-4.003 21.645-0.211 29.69 1.742 3.67 5.736 4.886 7.384 7.895 3.491 6.371 2.721 10.675 7.009 16.154 4.599 5.885 10.785 7.329 15.911 11.94 5.369 4.838 5.22 8.653 8.623 14.849 2.483 4.535 8.332 12.09 13.867 16.04 3.001-19.67 4.564-39.819 4.564-60.311 0-35.465-4.717-69.832-13.454-102.581-7.454 1.924-13.579 7.294-19.523 12.475l0 0zM877.405 293.906z"  horiz-adv-x="1024" />

    
    <glyph glyph-name="fx" unicode="&#61521;" d="M853.851 428.281c5.596 5.597 11.193 11.194 16.785 11.194h78.334c5.592 0 11.189 5.59 11.189 11.187v89.523c0 5.593-5.596 11.19-11.189 11.19h-89.523c-5.596 0-16.784-5.596-16.784-11.19l-95.119-100.71c-5.592-5.596-11.19-5.596-11.19 0l-50.355 100.71c-5.597 5.593-11.19 11.19-16.785 11.19h-145.475c-5.592 0-11.189-5.596-11.189-11.19v-89.523c0-5.595 5.596-11.187 11.189-11.187h89.523c5.596 0 11.193-5.596 16.784-11.194l33.572-72.739v-16.784l-100.712-117.496c-5.596 0-11.189-5.592-16.785-5.592h-78.33c-5.596 0-11.193-5.597-11.193-11.193v-89.522c0-5.592 5.596-11.19 11.193-11.19h89.519c5.596 0 16.784 5.597 16.784 11.19l128.69 145.474c5.597 5.597 11.19 5.597 11.19 0l72.737-145.474c0-5.592 11.19-11.19 16.785-11.19h89.522c5.597 0 11.19 5.597 11.19 11.19v89.522c0 5.596-5.592 11.193-11.19 11.193l-33.57-0c-5.596 0-11.189 5.592-16.784 11.189l-55.953 111.901v16.784l67.141 72.738zM395.053 775.179c-27.977-22.383-55.952-55.953-72.738-111.902l-27.972-111.904h-162.262c-5.597 0-11.19-5.596-11.19-11.19v-89.523c0-5.595 5.591-11.187 11.19-11.187h134.281l-83.925-335.711c-16.785-67.14-61.546-55.952-61.546-55.952h-55.951v-111.901h55.952c44.76 0 89.523 5.592 111.901 33.571 27.978 27.974 44.764 78.33 55.952 134.282l83.926 335.711h128.689c5.593 0 11.19 5.59 11.19 11.187v89.523c0 5.593-5.596 11.19-11.19 11.19h-100.711l27.973 106.308c5.597 16.785 33.571 44.759 50.356 55.952 61.545 44.759 145.475 16.785 201.422 5.591l0 95.12c-55.948 11.188-179.042 50.356-285.349-39.167v0zM395.053 775.179z"  horiz-adv-x="1024" />

    
    <glyph glyph-name="refresh" unicode="&#61528;" d="M756.091 204.8c-53.543-76.988-140.989-127.291-239.7-127.291-162.016 0-293.916 135.42-294.842 302.254h96.186l-153.151 157.303-152.871-157.303h96.41c0.94-231.673 183.338-419.204 408.267-419.204 130.244 0 246.125 62.944 320.919 160.846l-81.219 83.395M957.749 379.285l-0.042-0.029-33.063 0.029c0 0.767 0.056 1.519 0.056 2.271 0 232.512-182.805 420.997-408.309 420.997-131.296 0-248.060-63.986-322.728-163.276l81.275-83.511c53.388 78.434 141.677 129.837 241.454 129.837 162.606 0 294.898-136.389 294.898-304.047 0-0.752-0.070-1.504-0.070-2.271v-0.029l-96.438 0.029 153.151-157.303 152.885 157.303h-63.067z"  horiz-adv-x="1024" />

    
    <glyph glyph-name="cancel" unicode="&#61479;" d="M512 835.68c-249.42 0-451.68-202.2-451.68-451.68s202.26-451.68 451.68-451.68 451.68 202.2 451.68 451.68-202.26 451.68-451.68 451.68zM173.24 384c0 187.08 151.68 338.76 338.76 338.76 77.52 0 148.74-26.34 205.86-70.14l-478.32-469.32c-41.46 56.22-66.3 125.46-66.3 200.7zM512 45.24c-71.1 0-136.98 21.96-191.46 59.34l474.36 465.54c35.28-53.46 55.86-117.36 55.86-186.12 0-187.08-151.68-338.76-338.76-338.76z"  horiz-adv-x="1024" />

    
    <glyph glyph-name="edit" unicode="&#61442;" d="M906.41 613.327c-19.043 31.508-42.539 62.333-71.288 90.915-29.069 28.873-60.438 52.536-92.518 71.535l56.35 56.372c0 0 81.572 0.023 122.35-40.773 40.784-40.794 40.784-122.367 40.784-122.367l-55.677-55.682zM404.146 103.807l-170.396 0 0 170.395 20.462 20.456c34.643-16.306 69.045-39.376 100.021-70.357 30.992-30.959 54.04-65.4 70.368-100.038l-20.455-20.456zM859.323 566.219l-385.538-392.784c-19.89 32.928-44.433 65.103-74.462 94.963-30.359 30.174-63.123 54.858-96.634 74.725l393.501 386.234c33.174-15.594 66.101-37.648 95.764-67.329 29.676-29.681 51.736-62.586 67.369-95.81zM177.02 719.976l0-672.878 672.9 0 0 280.369 112.151 112.139 0.016-423.097c0-45.062-36.516-81.572-81.567-81.572l-734.1 0c-45.045 0-81.567 36.511-81.567 81.572l0 734.072c0 45.085 36.521 81.589 81.567 81.589l423.125-0.023-112.151-112.172-280.374 0z"  horiz-adv-x="1024" />

    
    <glyph glyph-name="room" unicode="&#61494;" d="M812 834l-600 0c-82.838 0-150-67.162-150-150l0-600c0-82.838 67.162-150 150-150l600 0c82.838 0 150 67.162 150 150l0 600c0 82.838-67.162 150-150 150zM736.738 384l-37.238 0 0-206.1c0-10.425-8.063-18.9-18.375-18.9l-113.25 0c-10.125 0-18.375 8.1-18.375 18.563l0 75.375c0 10.237-8.025 18.562-18.938 18.562l-37.125 0c-10.463 0-18.938-8.1-18.938-18.562l0-75.375c0-10.237-8.063-18.563-18.375-18.563l-113.25 0c-10.125 0-18.375 8.7-18.375 18.9l0 206.1-37.238 0c-20.85 0-25.8 11.963-11.137 26.625l209.25 209.25c14.7 14.7 38.587 14.663 53.25 0l209.25-209.25c14.7-14.7 9.75-26.625-11.138-26.625z"  horiz-adv-x="1024" />

    
    <glyph glyph-name="unread" unicode="&#61477;" d="M502.746754 286.840146 383.229706 399.416108 114.107339 64.761212l795.784298 0L641.933793 402.750039 502.746754 286.840146zM928.39813 703.238788 95.600847 703.238788l407.145907-360.878141L928.39813 703.238788zM678.557922 434.89311l268.345678-342.372671L946.903599 656.973068 678.557922 434.89311zM77.094354 647.71931l0-555.198871 259.09192 333.118913L77.094354 647.71931z"  horiz-adv-x="1024" />

    
    <glyph glyph-name="readed" unicode="&#61476;" d="M503.742431 136.293385l-106.645902 100.453876L156.95317-61.870884l710.090591 0L627.943151 239.723036 503.742431 136.293385zM883.559922 507.852796 503.742431 829.871907 140.440078 507.852796l363.302353-322.018088L883.559922 507.852796zM660.622434 268.404262l239.449557-305.504996L900.071991 466.569554 660.622434 268.404262zM123.925962 458.312496l0-495.41323 231.192499 297.248961L123.925962 458.312496z"  horiz-adv-x="1024" />

    
    <glyph glyph-name="menu" unicode="&#61457;" d="M62 744l105.356 0 0-105.356-105.356 0 0 105.356zM263.937 744l698.063 0 0-105.356-698.063 0 0 105.356zM62 436.763l105.356 0 0-105.356-105.356 0 0 105.356zM263.937 436.763l698.063 0 0-105.356-698.063 0 0 105.356zM62 129.356l105.356 0 0-105.356-105.356 0 0 105.356zM263.937 129.356l698.063 0 0-105.356-698.063 0 0 105.356z"  horiz-adv-x="1024" />

    
    <glyph glyph-name="project" unicode="&#61510;" d="M512.014 861.542l-400.338-244.702v-468.049l400.337-242.334 400.309 242.334v468.049l-400.308 244.702zM475.179 20.497l-294.623 182.948v339.754l294.623-187.71v-334.993zM217.391 612.094l294.622 152.044 286.27-163.933-286.269-171.059-294.623 182.948zM836.314 203.445l-294.621-182.948v334.994l294.621 187.71v-339.755z"  horiz-adv-x="1024" />

    
    <glyph glyph-name="paste" unicode="&#61524;" d="M652.236 721.5h-112.5v56.25c0 30.941-25.322 56.25-56.249 56.25h-112.5c-30.926 0-56.249-25.309-56.249-56.25v-56.25h-112.5v-128.141h449.997v128.141h0.001zM483.488 721.5h-112.499v56.141c0.027 0.027 0.055 0.053 0.11 0.109h112.308c0.027-0.027 0.081-0.055 0.11-0.109l-0.028-56.141zM764.737 503.118v190.257c0 15.464-12.66 28.125-28.125 28.125h-56.251v-56.25h28.126v-162.132h-322.16v-437.066h-240.339v599.197h28.125v56.25h-56.25c-15.463 0-28.125-12.662-28.125-28.125v-655.446c0-15.463 12.661-28.125 28.125-28.125h268.464v-75.804h383.522l163.638 155.214v413.903h-168.75zM770.752 13.543v73.566h83.193l-83.193-73.566zM877.236 143.358h-162.735v-153.106h-271.924v456.617h434.658v-303.51zM515.972 326.248h288.77v-56.553h-288.77v56.553zM515.972 167.423h146.421v-56.551h-146.421v56.551z"  horiz-adv-x="1024" />

    
    <glyph glyph-name="all" unicode="&#61525;" d="M721.358 804.355v-209.939h209.939v209.939h-209.939zM92.042 594.416h209.939v209.939h-209.939v-209.939zM406.7 594.416h209.939v209.939h-209.939v-209.939zM721.358-36.005h209.939v209.938h-209.939v-209.938zM92.042-36.005h209.939v209.938h-209.939v-209.938zM406.7-36.005h209.939v209.938h-209.939v-209.938zM721.358 279.205h209.939v209.939h-209.939v-209.939zM92.042 279.205h209.939v209.939h-209.939v-209.939zM406.7 279.205h209.939v209.939h-209.939v-209.939z"  horiz-adv-x="1024" />

    
    <glyph glyph-name="key" unicode="&#61474;" d="M576 384l0-128 128 0 0-128L576 128l0-64 128 0 0-136L384-72 384 384 288 384C235.072 384 192 427.072 192 480l0 256C192 788.928 235.072 832 288 832l448 0C788.928 832 832 788.928 832 736l0-256C832 427.072 788.928 384 736 384l0 0L576 384zM576 704 448 704l0-128 128 0L576 704z"  horiz-adv-x="1024" />

    
    <glyph glyph-name="filter" unicode="&#61492;" d="M512.058 821.09c132.249-0.001 264.496 0.016 396.743-0.015 27.901-0.005 48.237-27.922 38.105-52.954-2.457-6.069-7.195-11.577-11.918-16.313-99.394-99.633-198.914-199.138-298.533-298.546-3.969-3.961-5.611-7.781-5.604-13.452 0.171-150.256 0.158-300.511 0.123-450.766-0.006-30.007-25.851-49.413-53.107-39.589-5.235 1.887-10.284 5.49-14.271 9.453-52.837 52.53-105.437 105.297-158.187 157.914-8.871 8.85-12.885 19.255-12.87 31.744 0.116 98.099 0.114 196.197-0.092 294.297-0.005 2.99-1.947 6.663-4.143 8.864-100.277 100.505-200.541 201.024-301.211 301.137-17.709 17.61-14.746 38.759-3.773 53.749 7.853 10.729 19.056 14.513 31.994 14.505 72.228-0.055 144.458-0.029 216.686-0.029 60.018-0.001 120.037-0.001 180.055-0.002z"  horiz-adv-x="1024" />

    
    <glyph glyph-name="remote" unicode="&#61504;" d="M910.805 567.251c-13.155 20.836-15.186 55.107-15.186 55.107-5.456 61.263-62.797 138.32-143.204 142.502 0 0-33.715 3.248-55.381 15.111-50.263 27.516 24.61 116.474 187.277-26.363 139.747-169.059 51.964-226.7 26.494-186.355zM829.043 518.616c-4.396-4.373-22.436-7.673-31.519 1.363-12.447 12.387-9.353 39.307-9.353 39.307-0.996 18.849-13.249 43.182-34.497 64.326-21.248 21.144-45.7 33.336-64.643 34.328 0 0-27.052-3.08-39.502 9.308-9.081 9.036-5.767 26.986-1.372 31.362 4.396 4.373 48.817 37.67 135.662-44.998 88.729-92.042 49.618-130.619 45.221-134.993zM793.87 403.622l-462.254-459.978c-11.101-11.046-29.096-11.046-40.196 0l-221.078 219.989c-11.101 11.046-11.101 28.953 0 39.998l462.254 459.979c11.101 11.046 29.096 11.046 40.196 0l221.077-219.989c11.101-11.046 11.101-28.953 0-39.998zM270.695 44.263c22.546-22.435 59.523-22.015 82.59 0.938s23.489 59.747 0.942 82.183c-22.546 22.436-59.523 22.016-82.59-0.937-23.069-22.954-23.49-59.747-0.942-82.184zM172.404 225.193c-23.068-22.954-23.349-59.888-0.628-82.496s59.838-22.328 82.903 0.625c23.068 22.954 23.349 59.889 0.628 82.496-22.719 22.608-59.837 22.328-82.903-0.625zM355.798 325.813c-22.718 22.608-59.696 22.469-82.59-0.311-22.893-22.781-23.034-59.576-0.314-82.186 22.718-22.607 59.696-22.467 82.59 0.314 22.893 22.779 23.033 59.574 0.314 82.183zM372.441 226.756c-22.893-22.781-23.175-59.436-0.628-81.872 22.547-22.435 59.383-22.156 82.277 0.625 22.892 22.779 23.175 59.436 0.626 81.872-22.545 22.434-59.381 22.155-82.275-0.625zM643.137 513.617c-49.95 49.703-131.636 49.004-182.453-1.561-50.816-50.567-51.519-131.85-1.571-181.554 49.948-49.703 131.636-49.004 182.452 1.561 50.817 50.567 51.519 131.852 1.571 181.554zM502.45 373.625c-27.749 27.612-27.749 72.382 0 99.994 27.751 27.614 72.741 27.614 100.491 0 27.749-27.612 27.749-72.382 0-99.994-27.75-27.614-72.74-27.614-100.491 0z"  horiz-adv-x="1024" />

    
    <glyph glyph-name="mixedline" unicode="&#61489;" d="M79.805 771.745c10.467 0.129 19.97 0.642 24.401-5.137 6.164-8.027 3.211-30.886 3.211-44.307 0-37.886 0-75.772 0-113.658 0-144.672 0-289.409 0-434.081 0-34.482 0-68.9 0-103.383 0-14.192-3.532-31.271 5.779-37.244 6.293-4.046 39.619-1.284 50.086-1.284 44.307 0 88.614 0 132.922 0 165.863 0 331.79 0 497.652 0 59.525 0 118.987 0 178.513 0 11.237-2.697 19.007-20.805 10.274-32.749-7.513-10.21-35.445-6.421-52.655-6.421-50.279 0-100.622 0-150.901 0-173.761 0-347.65 0-521.411 0-44.756 0-89.449 0-134.206 0-15.668 0-42.06-3.404-51.371 3.853-12.394 9.632-7.063 82.385-7.063 107.878 0 106.786 0 213.637 0 320.423 0 84.763 0 169.523 0 254.286 0 22.09-4.816 71.213 3.853 84.119 2.57 3.853 6.935 5.137 10.916 7.705zM813.762 712.669c9.053 0.257 22.411 1.412 27.612-2.567 11.495-8.797-1.669-73.46-4.495-86.688-4.238-19.97 4.11-45.785-19.906-45.591-6.421 4.688-11.815 17.081-19.264 19.264-19.649 5.715-44.307-42.124-53.297-52.655-29.987-34.996-61.709-69.799-89.9-106.594-12.522-16.31-25.814-39.491-48.16-45.591-16.374-4.431-36.474 10.21-44.307 17.981-32.235 32.171-67.295 61.516-99.531 93.751-8.091 8.091-30.951 36.345-46.234 34.033-19.457-2.954-48.609-38.335-60.361-52.013-5.779-3.853-11.558-7.705-17.338-11.558-9.825-10.081-19.713-20.099-29.538-30.18-4.688-2.762-9.439-5.586-14.127-8.348-21.511-16.567-38.271-38.529-60.361-55.223-17.402-13.1-55.994-61.772-76.414-15.411-15.86 36.089 27.869 53.104 43.664 69.351 49.059 50.343 106.337 92.98 156.038 142.554 13.228 13.228 39.555 47.325 69.351 41.097 19.906-4.174 33.84-23.438 46.234-35.959 25.236-25.492 54.067-47.325 78.982-73.203 7.513-7.834 34.996-38.527 52.013-31.465 8.99 3.725 16.633 20.099 22.475 27.612 20.355 26.199 42.83 50.149 62.287 77.698 9.504 13.485 50.535 49.765 51.371 64.855-3.147 7.385-7.899 16.053-13.485 21.19-5.01 4.623-13.934 7.449-16.053 14.769-6.742 23.438 15.154 16.759 26.97 18.622 7.063 1.926 14.127 3.853 21.19 5.779 18.173 1.477 36.409 3.018 54.581 4.495zM822.752 483.429c22.924 0.257 40.775-3.211 47.518-19.264 8.862-21.126 4.495-58.434 4.495-89.257 0-62.929 0-125.859 0-188.787 0-33.07 5.458-74.358-9.632-93.109-13.228-16.438-50.922-12.201-80.267-12.201-7.257-0.449-14.576-0.835-21.833-1.284-5.907 0.963-9.247 4.688-13.485 7.063-6.935 3.853-15.154 7.063-18.622 14.127-5.651 11.622-1.926 49.123-1.926 65.498 0 69.542 0 139.15 0 208.693 0 24.337-4.944 77.185 4.495 92.467 10.852 17.659 39.427 15.411 68.066 15.411 7.063 0.193 14.127 0.449 21.19 0.642zM390.597 405.73c34.675 0.257 89.835 5.715 102.099-17.338 10.081-18.943 7.063-53.297 7.063-81.551 0-45.398 0-90.733 0-136.131 0-23.502 2.697-51.564-4.495-69.351-3.981-9.825-19.264-18.686-30.18-21.19-12.65 0.193-25.236 0.449-37.886 0.642-22.989 0-48.995-2.119-62.287 7.707-23.952 17.723-14.769 107.043-14.769 150.901 0 41.803-7.063 133.628 9.632 155.396 6.999 9.118 19.007 6.164 30.822 10.916zM565.255 328.032c36.281 0.321 97.54 6.614 111.089-16.053 11.237-18.879 10.274-43.28 10.274-73.203 0-54.324 11.815-138.316-26.327-155.396-10.916-4.88-30.437-2.57-44.949-2.57-34.547 0-62.864-3.725-77.056 17.338-6.87 10.147-3.211 80.909-3.211 100.815 0 24.464-4.495 102.677 3.853 116.226 5.458 8.862 16.567 8.027 26.327 12.844zM196.673 237.493c44.5 0.514 94.522 5.972 113.658-20.548 3.596-4.944 5.843-13.678 7.063-20.548-0.193-26.327-0.449-52.655-0.642-78.982-3.596-12.65-14.705-28.768-25.685-34.033-5.586-2.697-88.164-5.33-95.035-3.211-9.183 2.762-25.492 12.971-28.896 21.833-5.715 14.833-1.284 65.434-1.284 86.688 0 10.531-1.541 24.722 2.567 31.465 5.779 9.439 18.75 11.495 28.253 17.338z"  horiz-adv-x="1024" />

    
    <glyph glyph-name="up" unicode="&#61536;" d="M746.767 500.039c-29.941 110.435-125.542 220.126-251.259 220.126-146.027 0-250.908-101.878-260.975-264.139-91.441 0-170.759-65.875-170.759-167.732 0-101.878 81.944-240.458 168.089-240.458h560.297c106.434 2.013 168.067 152.323 168.067 268.253 0 117.241-57.343 222.468-213.46 183.95v0zM679.531 333.795c-0.613-1.488-1.97-2.452-3.414-2.452l-102.868 0 0.219-159.81c0-2.976-1.050-5.953-3.239-8.228-2.189-2.277-5.034-3.415-7.835-3.415h-100.722c-2.845 0-5.691 1.138-7.879 3.415-2.145 2.276-3.24 5.253-3.24 8.228l0.219 159.81h-102.867c-1.489 0-2.845 0.963-3.458 2.452-0.525 1.532-0.087 3.239 0.963 4.268l159.027 154.906c1.97 1.904 4.684 3.086 7.573 3.086s5.559-1.182 7.528-3.086l159.072-154.906c1.052-1.029 1.489-2.736 0.92-4.268v0zM679.531 333.795z"  horiz-adv-x="1024" />

    
    <glyph glyph-name="copy" unicode="&#61523;" d="M442.656 384.81v192.356l-64.118 64.119v-320.595h320.594l-64.117 64.119zM378.538 577.166l256.476-256.475v-192.36h64.117v218.91l-294.045 294.045h-26.549v-64.119zM635.014 0.094h-448.833v577.072h128.238v64.119h-192.357v-705.311h577.070v128.238h-64.117zM891.49 603.716l-229.928 229.927h-283.024v-128.238h64.118v64.118h192.358l192.356-192.357v-384.717h-64.119v-64.118h128.239zM635.014 128.331h64.117v-64.118h-64.117v64.118zM314.419 641.286h64.119v-64.119h-64.119v64.119zM699.131 641.286v128.238l-64.117 64.119v-256.476h256.475l-64.119 64.119zM250.299 513.048h64.119v-64.119h-64.119v64.119zM250.299 384.81h64.119v-64.119h-64.119v64.119zM250.299 256.57h320.595v-64.119h-320.595v64.119zM250.299 128.331h320.595v-64.118h-320.595v64.118z"  horiz-adv-x="1024" />

    
    <glyph glyph-name="safe002" unicode="&#61540;" d="M463.78571416015626 576.8571424804687L463.78571416015626 480.4285716796875 367.3571424804687 480.4285716796875 367.3571424804687 384 463.78571416015626 384 463.78571416015626 287.5714283203125 560.2142858398438 287.5714283203125 560.2142858398438 384 656.6428575195313 384 656.6428575195313 480.4285716796875 560.2142858398438 480.4285716796875 560.2142858398438 576.8571424804687ZM873.29375 681.1333924804687l-29.72571416015625 4.73946416015625c-171.98357167968751 27.4660716796875-287.2446424804687 130.4389283203125-288.40660751953124 131.47553583984376l-3.1387500000000004 2.8414283203125c0 0.0160716796875-0.03214248046875 0-0.03214248046875 0C541.0041075195313 828.8362500000001 527.0991075195313 834 512 834c-16.13410751953125 0-30.79285751953125-5.93196416015625-42.0926783203125-15.6326783203125l-1.7260716796875002-1.61678583984375C465.6066075195313 814.3976783203125 351.2535716796875 711.1258924804688 181.18571416015624 685.9821424804687L150.39285751953122 681.4307141601562C150.39285751953122 681.41625 150.425 681.3214283203125 150.39285751953122 681.3214283203125c-13.874464160156249-3.57910751953125-24.107142480468752-16.166249999999998-24.107142480468752-31.138392480468745l0-27.79553583984375 0-182.82857167968749c0-175.93875 104.30678583984376-323.65767832031247 348.70660751953125-493.8203575195313C485.47571416015626-61.63660751953125 498.1882141601563-66 512-66c13.5289283203125 0 26.05339248046875 4.20589248046875 36.411428320312496 11.2998216796875l0.31339248046875 0.2201783203125C793.3448216796876 115.80803583984357 897.7142858398436 263.52696416015624 897.7142858398436 439.55892832031253L897.7142858398436 622.3875l0 27.79553583984375C897.7142858398436 665.2339283203125 887.2614283203125 677.6330358398438 873.29375 681.1333924804687zM833.4285716796875 439.55892832031253c0-129.60803583984378-64.28571416015626-262.29053583984376-321.4285716796875-441.2732141601563C254.85714248046878 177.26839248046883 190.57142832031252 309.9525000000001 190.57142832031252 439.55892832031253c0 77.15571416015625 0 182.82857167968749 0 182.82857167968749C385.4375 651.1875 512 769.7142858398438 512 769.7142858398438s128.57142832031252-116.51785751953125 321.4285716796875-147.32678583984375C833.4285716796875 622.3875 833.4285716796875 516.7146424804688 833.4285716796875 439.55892832031253z"  horiz-adv-x="1024" />

    
    <glyph glyph-name="delta" unicode="&#61520;" d="M32.36 896v0zM64.36 896v0zM96.36 896v0zM128.36 896v0zM160.36 896v0zM192.36 896v0zM224.36 896v0zM256.36 896v0zM288.36 896v0zM320.36 896v0zM352.36 896v0zM384.36 896v0zM416.36 896v0zM448.36 896v0zM480.36 896v0zM512.36 896v0zM544.36 896v0zM576.36 896v0zM608.36 896v0zM640.36 896v0zM672.36 896v0zM704.36 896v0zM736.36 896v0zM768.36 896v0zM800.36 896v0zM832.36 896v0zM864.36 896v0zM896.36 896v0zM928.36 896v0zM960.36 896v0zM992.36 896v0zM0.36 864v0zM0.36 832v0zM0.36 800v0zM0.36 768v0zM0.36 736v0zM0.36 704v0zM0.36 672v0zM0.36 640v0zM0.36 608v0zM0.36 576v0zM0.36 544v0zM0.36 512v0zM0.36 480v0zM0.36 448v0zM0.36 416v0zM0.36 384v0zM0.36 352v0zM0.36 320v0zM0.36 288v0zM0.36 256v0zM0.36 224v0zM0.36 192v0zM0.36 160v0zM0.36 128v0zM0.36 96v0zM0.36 64v0zM0.36 32v0zM0.36 0v0zM0.36-32v0zM0.36-64v0zM0.36-96v0zM513.524 806.042l-513.524-844.082h1024.494l-510.942 844.082zM611.442 60.23c-23.898 0-46.010 7.026-64.686 19.038-0.468-0.322-0.952-0.73-1.422-1.044-58.082-40.308-121.348-66.162-180.008-66.36-3.112 0-6.226 0.052-9.238 0.17-43.526 1.906-76.76 19.578-97.802 43.096-21.198 23.482-30.796 51.488-31.804 75.906-0.154 1.906-0.206 3.914-0.206 6.054 0.8 72.126 50.076 150.092 117.542 213.554 67.736 62.772 155.040 110.894 240.726 111.83 0.322 0 0.746 0.046 1.276 0.046 39.766 0.098 73.802-13.090 97.028-36.654 23.364-23.428 35.042-56.032 34.98-90.904 0-24.22-5.424-49.706-16.312-75.376 18.616-21.152 29.924-48.806 29.924-79.144 0.044-66.36-53.712-120.186-120.026-120.186zM651.21 394.35c-13.99 14.026-34.926 23.328-65.352 23.428h-0.856c-68.428-0.008-149.032-42.086-210.75-99.854-62.258-57.336-104.022-130.624-103.284-180.896 0-1.222 0.052-2.574 0.108-4.12 0.468-14.026 6.8-33.018 20.306-47.836 13.566-14.78 33.818-26.702 66.892-28.446 2.322-0.1 4.688-0.154 7.062-0.154 43.256-0.206 97.48 20.036 148.3 54.24-14.036 19.668-22.376 43.67-22.376 69.636 0 66.306 53.818 120.116 120.186 120.116 19.1 0 37.2-4.596 53.244-12.606 5.812 16.77 8.556 32.658 8.556 47.008-0.1 25.28-8.132 45.36-22.096 59.458z"  horiz-adv-x="1025" />

    
    <glyph glyph-name="formula" unicode="&#61522;" d="M76.512 385.675c136.568 0 270.817 0 407.617 0 0.715-9.557 1.912-18.084 1.918-26.617 0.12-126.536-0.392-253.073 0.538-379.598 0.157-21.885-5.664-28.854-28.269-28.619-110.479 1.135-220.977 0.367-331.473 0.607-34.33 0.073-52.321 16.439-52.467 49.939-0.533 123.856-0.183 247.717-0.057 371.572 0 3.397 1.134 6.792 2.194 12.718zM278.919 147.578c20.87-22.596 38.6-42.413 57.045-61.538 11.95-12.389 26.122-21.649 41.144-5.246 13.351 14.573 5.816 27.851-6.39 39.357-19.381 18.257-38.772 36.493-61.737 58.116 20.666 18.963 38.422 35.124 56.031 51.454 12.791 11.866 22.312 26.002 7.462 41.264-14.841 15.258-29.365 6.233-41.457-6.318-16.972-17.609-33.578-35.568-52.060-55.205-19.798 20.723-35.819 37.429-51.757 54.208-11.046 11.62-23.769 17.855-37.22 5.46-14.322-13.205-9.787-27.699 2.607-39.561 17.328-16.585 35.584-32.198 56.203-50.702-22.573-21.209-40.862-38.151-58.868-55.382-12.278-11.746-18.45-25.907-4.942-39.593 13.721-13.895 27.579-7.358 39.263 5.115 17.040 18.174 34.006 36.416 54.677 58.571zM538.423-47.409c0 144.637 0 287.595 0 434.327 9.379 0 17.98 0 26.57 0 118.509 0 237.020-0.543 355.52 0.486 22.124 0.194 28.656-5.92 28.451-28.274-1.066-116.719-0.381-233.446-0.56-350.169-0.063-41.986-16.093-57.556-58.534-57.588-107.819-0.067-215.628-0.047-323.447 0.026-8.725 0.011-17.447 0.728-28.001 1.192zM741.227 215.738c32.925 0 65.845-0.026 98.764 0.009 17.091 0.022 34.445 2.566 34.659 23.912 0.224 22.84-17.797 25.603-35.934 25.609-64.957 0-129.912-0.12-194.862 0.068-17.787 0.052-34.079-4.467-34.911-24.443-0.872-21.022 16.037-25.093 33.519-25.119 32.92-0.055 65.841-0.013 98.764-0.035zM741.766 87.34c33.797 0 67.583-0.020 101.381 0.006 16.742 0.016 31.635 4.73 31.582 24.231-0.047 19.098-14.871 25.013-31.414 25.086-67.584 0.303-135.178 0.277-202.762 0.016-16.679-0.063-31.488-6.311-31.635-25.056-0.141-19.072 14.328-24.443 31.466-24.351 33.797 0.193 67.583 0.058 101.381 0.067zM947.319 437.562c-137.487 0-271.91 0-408.597 0 0 128.809 0 256.578 0 388.115 9.113 0 17.713 0 26.319 0 107.892 0 215.78 0.053 323.672-0.026 43.584-0.026 59.662-15.989 59.715-59.585 0.125-100.76 0.061-201.519 0-302.273-0.011-7.874-0.649-15.749-1.109-26.23zM739.665 606.402c34.706 0 69.408-0.105 104.109 0.041 16.836 0.074 31.424 5.45 31.033 24.914-0.381 19.239-15.221 24.402-31.869 24.434-67.626 0.126-135.257 0.094-202.888 0-17.138-0.026-31.143-6.819-31.112-25.395 0.032-19.396 15.3-23.979 31.958-24.009 32.919-0.057 65.849-0.016 98.767 0.015zM483.846 437.546c-137.039 0-271.465 0-407.035 0-0.978 5.899-2.54 10.968-2.545 16.037-0.157 106.105-0.339 212.216-0.020 318.32 0.11 35.443 17.609 53.534 52.080 53.638 114.131 0.335 228.267 0.115 342.398 0.047 4.316 0 8.633-0.668 15.122-1.212 0-128.876 0-256.604 0-386.829zM306.299 661.922c0 25.353 0.57 46.693-0.188 67.992-0.575 16.325-2.091 34.256-24.146 34.879-24.094 0.684-25.442-17.881-25.765-35.465-0.412-21.847-0.105-43.705-0.105-67.371-19.448 0-34.644 1.516-49.417-0.361-21.44-2.723-57.013 13.126-57.682-23.206-0.668-36.635 34.92-22.322 56.47-24.643 15.603-1.678 31.535-0.329 51.14-0.329 0-31.305-1.553-59.678 0.899-87.701 0.784-8.951 10.691-20.99 19.187-24.11 6.276-2.309 19.887 5.476 24.978 12.547 5.011 6.97 4.284 18.681 4.515 28.343 0.554 22.808 0.178 45.638 0.178 70.987 28.665 0 53.434-0.089 78.197 0.032 16.402 0.079 29.084 7.383 29.11 24.418 0.032 17.092-12.291 24.235-29.062 24.057-24.792-0.259-49.575-0.070-78.309-0.070z"  horiz-adv-x="1024" />

    
    <glyph glyph-name="allto" unicode="&#61537;" d="M822.108 418.404l-171.995-171.992v-103.2l309.579 275.192-309.579 275.187v-103.202l171.995-171.985zM65.33 40.012c0 0 42.77 253.529 240.789 275.194 28.79 3.16-0.465 0 68.795 0v-206.389l378.389 309.587-378.389 309.584v-206.392c0 0-331.344 10.55-309.584-481.584z"  horiz-adv-x="1024" />

    
    <glyph glyph-name="recovery" unicode="&#61527;" d="M577.283 793.6c-226.418 0-409.373-183.41-409.373-409.6h-136.533l177.266-177.266 3.186-6.599 183.637 183.865h-136.533c0 175.901 142.677 318.578 318.578 318.578s318.578-142.677 318.578-318.578-142.677-318.578-318.578-318.578c-88.064 0-167.481 35.954-225.053 93.525l-64.398-64.398c73.955-74.183 176.128-120.149 289.223-120.149 226.418 0 409.827 183.41 409.827 409.6s-183.41 409.6-409.827 409.6zM532 566.045v-227.555l194.787-115.598 32.768 55.296-159.289 94.435v193.422h-68.267z"  horiz-adv-x="1024" />

    
    <glyph glyph-name="confirmed" unicode="&#61493;" d="M512 834c-248.528 0-450-201.472-450-450s201.472-450 450-450c248.528 0 450 201.472 450 450 0 248.528-201.472 450-450 450zM740.094 485.644l-249.862-270.619c-0.675-0.787-0.844-1.8-1.462-2.531-6.954-7.501-16.086-12.893-26.387-15.177 2.396-0.373-5.391-2.297-13.627-2.297-13.553 0-25.889 5.211-35.115 13.736-2.047 1.881-3.003 4.412-4.69 6.549l-122.062 112.725c-10.314 9.528-16.751 23.122-16.751 38.219 0 13.644 5.258 26.061 13.857 35.332 9.524 10.275 23.138 16.707 38.252 16.707 13.63 0 26.038-5.229 35.329-13.792l89.571-82.766 216.506 234.394c9.604 11.252 23.799 18.339 39.65 18.339 28.736 0 52.031-23.295 52.031-52.031 0-14.366-5.823-27.373-15.237-36.789z"  horiz-adv-x="1024" />

    
    <glyph glyph-name="video" unicode="&#61542;" d="M505.296875 412.1765625c-46.683749999999996 28.438125-118.60125 71.9109375-162.6121875 98.745-52.05937499999999 31.6640625-52.05937499999999-15.557812499999995-52.05937499999999-15.557812499999995v-221.10843749999998s0-47.2265625 47.2265625-18.78375c55.8046875 33.808125 111.6271875 67.618125 167.4346875 101.964375 45.0853125 26.8284375 26.294999999999998 38.6409375 0 54.7359375zM956.0853125000001 630.061875c-7.5140625000000005 4.2946875-17.17125 4.2946875-24.68625 0l-199.096875-113.77312500000001v68.6971875c0 52.05937499999999-42.931875 94.45125-95.529375 94.45125h-485.679375c-52.589999999999996 0-95.529375-42.3965625-95.529375-94.45125v-401.424375c0-52.05937499999999 42.931875-94.45125 95.529375-94.45125h485.679375c52.589999999999996 0 95.529375 42.3965625 95.529375 94.45125v68.6971875l199.096875-113.77312500000001c7.5140625000000005-4.2946875 17.17125-4.2946875 24.68625 0s12.3328125 12.3328125 12.3328125 21.473437500000003v449.184375c0 8.0446875-4.8346875 16.634999999999998-12.3328125 20.930625zM919.0559375 202.33781249999993l-199.096875 113.77312500000001c-7.5140625000000005 4.2946875-17.17125 4.2946875-24.68625 0s-12.3328125-12.3328125-12.3328125-21.473437500000003v-111.6271875c0-24.68625-20.3971875-45.0853125-45.615937499999994-45.0853125h-485.679375c-25.2271875 0-45.615937499999994 20.3971875-45.615937499999994 45.0853125v401.424375c0 24.68625 20.3971875 45.0853125 45.615937499999994 45.0853125h485.679375c25.2271875 0 45.615937499999994-20.3971875 45.615937499999994-45.0853125v-111.6271875c0-8.580937500000001 4.8346875-17.17125 12.3328125-21.473437500000003s17.17125-4.2946875 24.68625 0l199.096875 113.77312500000001v-362.7834375zM636.7746875 89.10281250000003h-485.679375c-52.589999999999996 0-95.529375 42.3965625-95.529375 94.45125v401.424375c0 52.05937499999999 42.931875 94.45125 95.529375 94.45125h485.679375c52.589999999999996 0 95.529375-42.3965625 95.529375-94.45125v-68.6971875l199.096875 113.77312500000001c7.5140625000000005 4.2946875 17.17125 4.2946875 24.68625 0s12.3328125-12.3328125 12.3328125-21.473437500000003v-449.184375c0-8.580937500000001-4.8346875-17.17125-12.3328125-21.473437500000003s-17.17125-4.2946875-24.68625 0l-199.096875 113.77312500000001v-68.6971875c0-52.05937499999999-42.931875-93.916875-95.529375-93.916875z"  horiz-adv-x="1024" />

    
    <glyph glyph-name="plan" unicode="&#61509;" d="M808.259 710.558v47.132c0 47.132-29.177 76.31-80.797 76.31-49.377 0-80.797-29.177-80.797-76.31v-49.377h-53.866v49.377c0 47.132-29.177 76.31-80.797 76.31-49.377 0-80.797-29.177-80.797-76.31v-49.377h-53.866v49.377c0 47.132-29.177 76.31-80.797 76.31-49.377 0-78.554-29.177-78.554-76.31v-49.377h-92.019v-774.315h774.315v774.315l-92.019 2.244zM689.307 757.69c0 22.444 11.222 33.666 38.154 33.666s38.154-8.978 38.154-33.666v-130.175c0-22.444-11.222-33.666-38.154-33.666s-38.154 8.977-38.154 33.666v130.175zM476.090 757.69c0 22.444 11.222 33.666 38.154 33.666s38.154-8.978 38.154-33.666v-130.175c0-22.444-11.222-33.666-38.154-33.666s-38.154 8.977-38.154 33.666v130.175zM260.628 757.69c0 22.444 11.222 33.666 38.154 33.666s38.154-8.978 38.154-33.666v-130.175c0-22.444-11.222-33.666-38.154-33.666s-38.154 8.977-38.154 33.666v130.175zM835.192 1.331h-644.139v536.408h644.139v-536.408zM399.78 113.551c6.733-6.733 22.444-13.466 33.666-13.466h22.444c11.222 0 24.688 6.733 33.666 13.466l260.348 260.348c6.733 6.733 6.733 20.2 0 26.933l-47.132 47.132c-6.733 6.733-20.2 6.733-26.933 0l-213.217-215.461c-6.733-6.733-20.2-6.733-26.933 0l-78.554 78.554c-6.733 6.733-20.2 6.733-26.933 0l-47.132-47.132c-6.733-6.733-6.733-20.2 0-26.933l116.708-123.442z"  horiz-adv-x="1024" />

    
    <glyph glyph-name="database" unicode="&#61538;" d="M908.635 249.937c-0.001 0-0.003 0-0.005 0-5.763 0-11.26-1.14-16.278-3.206l0.285 0.129-0.193-0.077c-0.194-0.097-0.42-0.164-0.658-0.19l-387.645-155.907-388.136 156.021c-0.261 0.126-0.564 0.214-0.884 0.248l0.523-0.094-0.013-0.025c-4.734 1.962-10.233 3.102-15.997 3.102-0.001 0-0.001-0-0.002-0-23.103 0-41.843-18.199-41.843-40.646 0-16.951 10.696-31.443 25.857-37.531v-0.026l404.121-162.456c0.064-0.026 0.116-0.039 0.181-0.064l0.18-0.064v0.013c4.734-1.97 10.232-3.114 15.999-3.114 0.005 0 0.009 0 0.014 0 0.004-0 0.009-0 0.014-0 5.757 0 11.246 1.144 16.254 3.217l-0.27-0.116 0.181 0.064c0.064 0.025 0.129 0.038 0.193 0.064l404.108 162.482c15.174 6.088 25.857 20.58 25.857 37.531 0.002 22.446-18.739 40.645-41.842 40.645M908.635 426.089c-0.004 0-0.008 0-0.012 0-5.761 0-11.256-1.142-16.269-3.212l0.283 0.117-0.193-0.071c-0.261-0.126-0.564-0.214-0.884-0.248l-387.419-155.838-388.136 156.008c-0.194 0.097-0.42 0.164-0.658 0.19l0.297-0.042-0.013-0.013c-4.729 1.966-10.223 3.108-15.983 3.108-0.001 0-0.002-0-0.003-0-23.116 0-41.856-18.2-41.856-40.646 0-16.951 10.696-31.444 25.857-37.544v-0.026l404.121-162.444c0.064-0.012 0.116-0.038 0.181-0.064l0.18-0.076c4.732-1.955 10.226-3.090 15.986-3.090 0.009 0 0.018 0 0.028 0 0.008-0 0.019-0 0.029-0 5.749 0 11.233 1.135 16.24 3.194l-0.273-0.104 0.181 0.076c0.064 0.026 0.129 0.053 0.193 0.064l404.108 162.47c15.174 6.1 25.857 20.593 25.857 37.531 0.001 22.46-18.74 40.66-41.843 40.66M83.647 524.043v-0.013l404.121-162.457c0.064-0.026 0.116-0.052 0.181-0.077l0.18-0.064v0.013c4.728-1.958 10.219-3.095 15.976-3.095 0.013 0 0.025 0 0.038 0 0.010-0 0.024-0 0.039-0 5.746 0 11.227 1.137 16.229 3.198l-0.271-0.116 0.181 0.064 0.193 0.077 404.108 162.47c15.174 6.101 25.857 20.6 25.857 37.551 0 16.932-10.684 31.431-25.857 37.532l0.013 0.013-404.121 162.456c-0.064 0.013-0.129 0.039-0.193 0.064l-0.181 0.078-0.012-0.013c-4.732 1.962-10.228 3.102-15.99 3.102-5.767-0.001-11.272-1.141-16.298-3.207l0.289 0.118-0.18-0.078c-0.064-0.025-0.116-0.051-0.181-0.064l-404.121-162.47c-15.162-6.101-25.857-20.6-25.857-37.532 0-16.95 10.696-31.449 25.857-37.55z"  horiz-adv-x="1024" />

    
    <glyph glyph-name="alarm" unicode="&#61541;" d="M512-60.41600000000017c-25.6 0-47.33155555555555 8.874666666666666-65.19466666666666 26.737777777777776-17.86311111111111 17.86311111111111-26.737777777777776 38.79822222222222-26.737777777777776 63.03288888888889h181.58933333333331c0-25.6-8.533333333333333-46.990222222222215-25.71377777777778-64.05688888888888-16.95288888888889-17.066666666666666-38.343111111111114-25.71377777777778-63.94311111111111-25.71377777777778z m273.5217777777778 499.93955555555556v-226.53155555555554l91.93244444444444-91.93244444444444v-44.82844444444444H146.65955555555558V121.1733333333334l91.93244444444444 91.93244444444444v226.41777777777776c0 71.2248888888889 18.204444444444444 133.23377777777776 54.49955555555555 185.91288888888892 36.295111111111105 52.679111111111105 86.4711111111111 86.92622222222222 150.64177777777778 102.51377777777776v32.08533333333333c0 18.54577777777778 6.371555555555555 34.58844444444444 19.228444444444442 48.128 12.85688888888889 13.539555555555555 29.240888888888886 20.36622222222222 49.15200000000001 20.252444444444446 19.91111111111111 0 36.295111111111105-6.826666666666667 49.15200000000001-20.252444444444446 12.85688888888889-13.539555555555555 19.228444444444442-29.468444444444444 19.228444444444442-48.128v-32.08533333333333c64.05688888888888-15.701333333333334 114.34666666666666-49.834666666666664 150.64177777777778-102.51377777777776 36.295111111111105-52.679111111111105 54.49955555555555-114.68799999999999 54.385777777777776-185.91288888888892z m89.77066666666667 23.552c-7.054222222222222 122.53866666666666-60.52977777777778 220.0462222222222-160.3128888888889 292.7502222222222l64.05688888888888 64.05688888888888C897.3653333333333 728.7466666666667 960.0568888888888 609.7351111111111 967.1111111111112 463.0755555555555h-91.81866666666666zM311.1822222222222 755.8257777777778C210.0337777777778 684.6008888888889 155.87555555555554 586.9795555555555 148.82133333333337 463.0755555555555H56.88888888888886c7.054222222222222 146.65955555555556 69.74577777777776 265.6711111111111 188.0746666666667 356.8071111111111l66.21866666666668-64.05688888888888z"  horiz-adv-x="1024" />

    


  </font>
</defs>
</svg>
